<?xml version="1.0" encoding="UTF-8"?>
<svg width="1440px" height="1036px" preserveAspectRatio="none" viewBox="0 0 1440 1036" version="1.1" xmlns="http://www.w3.org/2000/svg" xmlns:xlink="http://www.w3.org/1999/xlink">
    <title>bg-flavor</title>
    <desc>Created with Sketch.</desc>
    <defs>
        <path d="M182.392418,1036 L10.2912156,913.336641 L0,922.104854 L0,917.420328 L2.13844688,915.612963 L0,916.328364 L0,912.716178 L6.79045625,910.447352 L0,904.406217 L0,899.733354 L10.169375,908.783037 L25.3006375,895.488663 L99.0708187,830.662881 L0,799.155226 L0,795.541309 L98.8261781,826.966856 L82.6175375,798.053822 L51.4493625,741.01243 L0,740.971359 L0,737.555605 L50.1762719,737.609937 C50.2002562,737.561015 50.2002562,737.536074 50.2501437,737.487152 C50.2501437,737.413289 50.2981125,737.365326 50.2981125,737.340385 C50.3230562,737.291463 50.3719844,737.267481 50.4209125,737.169637 C50.4209125,737.144696 50.4458562,737.095774 50.4947844,737.071793 L50.616625,736.949007 C50.6415687,736.900085 50.6904969,736.875144 50.739425,736.826222 C50.7643687,736.7773 50.8123375,736.752359 50.862225,736.752359 C50.9351375,736.704396 50.9600812,736.679456 51.0090094,736.630533 L51.0579375,736.630533 C51.0819219,736.606552 51.1318094,736.606552 51.1797781,736.55667 C51.25365,736.55667 51.3025781,736.507748 51.3754906,736.483767 C51.4493625,736.483767 51.5232344,736.434844 51.6210906,736.434844 L51.6940031,736.434844 C51.8168031,736.409904 51.9386437,736.434844 52.0125156,736.434844 L52.0614437,736.434844 C52.1842437,736.434844 52.2571562,736.483767 52.3799562,736.483767 C52.5027562,736.507748 52.5756687,736.55667 52.6495406,736.606552 L52.6984687,736.630533 C52.7713812,736.679456 52.8452531,736.704396 52.8941812,736.752359 C52.9431094,736.7773 52.9680531,736.7773 52.9680531,736.7773 C53.0659094,736.875144 53.0898937,736.900085 53.1388219,736.949007 C53.18775,736.972989 53.2117344,737.021911 53.2117344,737.071793 C53.2616219,737.095774 53.2856062,737.144696 53.3345344,737.169637 C53.3834625,737.2176 53.4084062,737.291463 53.4084062,737.340385 L53.579175,737.609937 L213.77945,737.756704 L209.862322,734.182504 C209.813394,734.157563 209.813394,734.108641 209.764466,734.108641 L0,542.9308 L0,538.191653 L211.649637,731.122467 L211.894278,731.122467 C211.96815,731.122467 212.066006,731.122467 212.139878,731.146448 L212.187847,731.146448 C212.261719,731.146448 212.384519,731.19633 212.457431,731.244293 C212.580231,731.318156 212.653144,731.342137 212.775944,731.392019 L212.775944,731.416 C212.848856,731.513844 212.946712,731.537826 213.020584,731.611689 L213.069512,731.611689 L219.508837,738.270867 C219.557766,738.270867 219.557766,738.270867 219.557766,738.294848 L312.2804,822.80463 L375.914784,880.776504 L322.342325,799.179993 L322.342325,799.156011 L320.457153,796.266722 C306.305412,774.674756 292.129687,753.057848 277.977947,731.513844 L182.292762,585.531852 C149.508041,535.565956 116.773206,485.624041 83.9894437,435.658144 L6.32515937,522.49317 L0,529.532931 L0,524.287633 L3.63219375,520.24083 L42.2921281,476.982074 L81.3444469,433.404844 C54.230009,420.945367 27.1154672,408.491191 0,396.040537 L0,392.175334 L82.7403375,430.222981 L93.0478625,346.326167 L0,334.786946 L0,331.313804 L93.489175,342.922715 L105.045806,249.086056 L0,272.221306 L0,268.696412 L102.963962,246.026019 L12.3730594,180.661133 L12.2991875,180.636193 L0,188.999033 L0,184.795729 L9.28770937,178.481696 L0,171.822445 L0,167.464801 L12.2253156,176.279237 L99.3653469,97.2535407 L0,55.5501437 L0,51.8042863 L98.5076656,93.1651778 L88.9590062,76.1507963 L88.9590062,76.1258556 L82.6175375,64.8651111 C82.4956969,64.5706185 82.421825,64.2770852 82.421825,64.0075333 C73.5101906,47.4583926 64.5726531,30.9092519 55.6610187,14.3351704 C53.08318,9.56402658 50.4975961,4.78513857 47.9104914,0 L52.0047317,0 L86.1192562,62.8324407 L292.006887,128.687507 C265.221137,104.523767 238.410444,80.3609852 211.625653,56.1982037 C190.873348,37.4525023 170.121043,18.7198893 149.350502,0 L154.604656,0 L292.667897,124.329593 L233.778996,0 L237.704047,0 L299.646391,130.793081 C299.646391,130.817063 299.646391,130.865985 299.670375,130.890926 C299.792216,131.012752 299.963944,131.184459 300.110728,131.282304 L363.353687,151.52843 C353.877941,109.714319 344.379169,67.9491296 334.903422,26.1599593 L293.185672,0 L299.666063,0 L337.425619,23.6620481 L573.624703,171.774556 L634.663978,146.63237 L682.555019,126.851485 L419.806637,0 L427.761597,0 L681.1102,122.321863 L675.576525,110.154619 L674.058794,107.388115 C662.208594,85.7961481 650.382378,64.228163 638.556162,42.635237 C630.762199,28.4211152 622.967807,14.2069934 615.173559,0 L619.301209,0 L656.234566,66.7989778 C723.247869,86.8733963 790.236228,106.996737 857.249531,127.096096 C813.260174,84.7102162 769.230571,42.3448507 725.233723,0 L730.263418,0 L858.204109,123.129559 L801.946855,0 L805.856339,0 L863.346359,125.872081 L910.9918,48.584563 C864.151374,23.8146142 824.4192,4.21300258 808.736225,0 L817.956695,0 C838.051384,7.9205576 872.842661,25.2857483 912.485547,46.1614741 L940.940652,0 L945.776352,0 L915.840481,47.9236333 C948.257762,65.0608 983.710506,84.3754852 1016.91064,102.737626 L1094.67278,38.4739704 L1003.03047,0 L1012.06275,0 L1097.68426,35.9520778 L1141.17652,0 L1149.80723,0 L1103.26686,38.302263 L1233.93949,93.1651778 L1224.38987,76.1507963 L1224.38987,76.1258556 L1218.04936,64.8651111 C1217.92656,64.5706185 1217.85269,64.2770852 1217.85269,64.0075333 C1208.94106,47.4583926 1200.00352,30.9092519 1191.09188,14.3351704 C1188.51697,9.56435242 1185.93322,4.78469802 1183.34625,0 L1187.43631,0 L1221.55012,62.8324407 L1427.43775,128.687507 C1400.652,104.523767 1373.84227,80.3609852 1347.03157,56.1982037 C1326.27927,37.4525023 1305.52747,18.7198893 1284.76632,0 L1290.01504,0 L1428.09876,124.329593 L1369.20986,0 L1373.13491,0 L1435.07726,130.793081 C1435.07726,130.817063 1435.07726,130.865985 1435.10124,130.890926 C1435.22404,131.012752 1435.39481,131.184459 1435.54255,131.282304 L1498.78551,151.52843 C1489.30977,109.714319 1479.81003,67.9491296 1470.33429,26.1599593 L1428.61654,0 L1435.09693,0 L1472.85648,23.6620481 L1709.05557,171.774556 L1770.0699,146.63237 L1817.98588,126.851485 L1555.2375,0 L1563.17122,0 L1816.54107,122.321863 L1811.00835,110.154619 L1809.48966,107.388115 C1797.63946,85.7961481 1785.81324,64.228163 1773.96304,42.635237 C1766.18509,28.4211152 1758.39602,14.2069934 1750.60354,0 L1754.73207,0 L1791.66543,66.7989778 C1808.44492,71.8254208 1825.22285,76.8549311 1842,81.8863641 L1842,85.4811422 C1826.07787,80.704966 1810.1565,75.9297942 1794.23656,71.1559333 L1798.96148,79.9696074 L1798.96148,79.9945481 L1812.72179,105.577033 L1842,115.174051 L1842,118.779303 L1818.15761,110.962315 L1842,133.9615 L1842,138.83883 L1818.35332,116.030081 L1823.81313,126.190556 L1823.81313,126.239478 C1823.83807,126.2884 1823.83807,126.2884 1823.83807,126.312381 C1823.83807,126.312381 1823.88604,126.312381 1823.88604,126.361304 L1842,166.687359 L1842,178.046714 L1819.94397,129.813678 L1774.57512,148.492374 L1712.33663,174.148722 L1842,272.50747 L1842,276.866557 L1748.3036,205.779337 L1720.73404,184.896263 L1819.91998,301.0357 L1842,326.885336 L1842,332.305092 L1820.06677,306.61763 L1711.99317,180.049126 L1746.09992,348.430781 L1783.73236,422.437633 L1804.91152,464.178841 L1842,479.123918 L1842,482.832946 L1812.52608,470.959844 L1842,496.684948 L1842,501.325769 L1810.15067,473.530659 L1842,530.190764 L1842,537.359715 L1802.65891,467.385644 L1711.55282,482.123704 L1644.29488,492.99307 C1644.14809,493.237681 1643.95238,493.507233 1643.78065,493.776785 L1842,637.677815 L1842,641.971301 L1749.38098,574.736348 L1569.00505,607.295526 L1568.95708,607.295526 L1568.95708,607.345407 L1568.88321,607.345407 L1562.2971,608.495559 C1562.12537,608.74017 1561.97858,608.9608 1561.80686,609.156489 L1565.50429,610.135893 L1730.65014,654.374052 C1730.67508,654.374052 1730.72401,654.422015 1730.77294,654.422015 L1842,684.206934 L1842,687.791377 L1732.36454,658.437474 L1741.22821,711.267719 L1842,711.267719 L1842,714.720093 L1739.95416,714.720093 L1640.15613,745.05187 L1487.15501,791.566352 L1842,729.011986 L1842,732.496668 L1472.41517,797.662444 L1804.15266,827.186526 L1826.92246,808.042589 L1842,795.374143 L1842,799.911369 L1831.6234,808.629656 L1842,811.879069 L1842,815.504727 L1828.48912,811.274333 L1807.38383,829.022548 L1842,859.647623 L1842,864.3057 L1811.08126,836.954663 L1842,893.577273 L1842,900.929913 L1805.37586,833.918607 L1778.22363,950.988526 L1842,999.192279 L1842,1003.5557 L1777.39089,954.709493 L1758.50317,1036 L1754.84999,1036 L1764.022,996.498663 L1774.28156,952.334367 L1657.71174,864.227363 L1587.90117,1036 L1584.07967,1036 L1654.03925,863.835026 L1588.49475,878.254611 L1511.51943,1036 L1507.59307,1036 L1584.11232,879.209074 L1521.21186,893.016652 L1404.12878,983.573604 L1438.40629,1018.60575 L1455.38553,1036 L1450.47684,1036 L1421.97795,1006.85483 L1400.23563,984.576989 L1228.0873,808.385044 L1239.52113,829.144374 L1239.57102,829.170274 L1239.57102,829.219196 L1355.43771,1036 L1351.35906,1036 L1237.46519,832.719533 L1163.1309,898.059478 L1148.41601,911.010437 L1323.8325,1036 L1317.82325,1036 L1148.58677,915.368352 C1157.37088,955.586211 1166.16964,995.789415 1174.96058,1036 L1170.37493,1036 C1161.70068,995.486192 1153.01855,954.969102 1144.35113,914.43787 L995.521113,1036 L989.821671,1036 C998.903444,1028.6736 1008.89289,1020.58395 1019.26111,1012.1672 C1007.92513,997.307319 996.589156,982.471415 985.253181,967.61153 L959.622803,1036 L957.0087,1036 L983.368009,965.138559 C962.507359,937.816937 941.646709,910.472293 920.810044,883.15067 C898.431662,918.207759 876.053281,953.264848 853.6749,988.322896 C873.772709,1005.92946 892.569286,1022.37741 908.170862,1036 L902.352234,1036 C887.701539,1023.17443 870.244844,1007.87149 851.618,991.5297 L823.249744,1036 L819.21375,1036 L849.512172,989.668737 C772.093487,921.757978 675.650397,836.954663 675.650397,836.954663 L723.932862,925.332178 L784.404688,1036 L780.393342,1036 L669.969937,833.918607 L642.791803,950.988526 L755.267629,1036 L749.483371,1036 L641.960025,954.709493 L623.089487,1036 L619.418628,1036 L628.591134,996.498663 L638.874675,952.334367 L522.280872,864.227363 L452.470306,1036 L448.653025,1036 L518.632369,863.835026 L453.063884,878.254611 L376.108021,1036 L372.16142,1036 L448.681459,879.209074 L385.780997,893.016652 L268.697912,983.573604 L302.975422,1018.60575 L319.95435,1036 L315.059344,1036 L286.571069,1006.85483 L264.804769,984.576989 L92.6564375,808.385044 L104.090269,829.144374 L104.139197,829.170274 L104.139197,829.219196 L220.006695,1036 L215.927364,1036 L102.034328,832.719533 L27.7000344,898.059478 L12.9851406,911.010437 L188.401632,1036 L182.392418,1036 Z M101.250519,309.261348 L200.313662,316.214059 L110.799178,251.65687 L108.546566,250.016537 L108.350853,251.461181 L101.250519,309.261348 Z M224.772928,318.514363 L102.082297,99.5049222 L15.0909687,178.383852 L113.590969,249.40453 L207.487869,316.996815 L207.73155,317.241426 C213.412009,317.657744 219.117412,318.074063 224.772928,318.514363 Z M230.625116,476.835307 L129.162575,350.829889 C129.039775,350.805907 128.917934,350.805907 128.795134,350.756985 C128.795134,350.756985 128.770191,350.732044 128.721262,350.732044 C128.64835,350.683122 128.574478,350.6342 128.52555,350.609259 C128.452637,350.561296 128.40275,350.536356 128.329837,350.487433 C128.280909,350.487433 128.231981,350.438511 128.207037,350.41357 C128.134125,350.340667 128.036269,350.267763 128.011325,350.169919 L127.962397,350.169919 L100.491653,315.258637 L86.1681844,431.618704 L171.691669,458.376281 L230.625116,476.835307 Z M239.978062,474.068804 L314.483125,409.511615 L105.167647,315.405404 L235.815334,477.691926 L239.978062,474.068804 Z M358.65275,715.7724 L355.420616,712.467752 L95.5940437,446.918889 C125.465144,492.478907 155.360228,538.11183 185.304241,583.72077 L215.273197,629.475519 C237.162297,662.844311 259.075381,696.261067 280.988466,729.6289 C295.141166,751.245807 309.316891,772.813793 323.469591,794.406719 L323.542503,794.553485 L353.486516,727.425481 L358.65275,715.7724 Z M228.984584,318.833796 L362.227381,328.821604 L109.134662,104.916104 L228.984584,318.833796 Z M351.528431,628.325367 L375.864897,646.343133 C351.968784,618.483367 328.047728,590.624559 304.1756,562.813715 C280.940497,535.761644 257.753362,508.734515 234.567187,481.682444 L188.462503,467.238878 L93.5381031,437.518148 C178.326706,500.190393 263.091325,562.862637 347.903912,625.509941 C348.638794,626.073026 349.348731,626.61213 350.083612,627.150274 L351.087119,627.885067 C351.112062,627.933989 351.184975,627.95797 351.233903,628.006893 C351.307775,628.080756 351.405631,628.154619 351.478544,628.276444 L351.528431,628.325367 Z M376.355137,208.789493 L367.956769,171.725633 L364.235353,155.445085 L88.5186531,67.214337 L103.820684,95.3925778 L376.355137,208.789493 Z M85.7518156,795.924267 L377.995669,887.458704 L217.550753,741.209078 L55.4653062,741.061352 L85.7518156,795.924267 Z M266.249587,981.075693 L381.276731,892.08713 L90.2819844,800.967093 L266.249587,981.075693 Z M379.734056,668.4013 L384.728562,657.213459 L349.153019,630.920163 C349.153019,630.871241 349.104091,630.871241 349.079147,630.871241 L345.700228,628.350307 C264.045903,567.979326 182.415562,507.559422 100.71135,447.188441 L358.015725,710.092626 L360.195425,712.344967 C366.732606,697.704752 373.220859,683.065496 379.734056,668.4013 Z M404.36505,331.955504 L377.309716,212.927737 L111.509116,102.345289 L367.956769,329.237922 L404.36505,331.955504 Z M240.050975,478.622407 L489.006869,487.704674 L318.008828,411.103026 L245.045481,474.313415 L240.050975,478.622407 Z M498.604456,737.095774 L491.332394,724.2676 C470.349903,687.300626 449.367412,650.260748 428.383962,613.268833 L424.246178,612.143622 L391.682112,658.046096 C420.818331,679.5642 449.905622,701.083263 478.992912,722.603285 L498.604456,737.095774 Z M433.794837,763.021674 L500.416716,742.775548 L476.814172,725.319907 C447.285569,703.48237 417.708997,681.620852 388.180394,659.784274 L387.617241,659.367956 L383.015119,669.772081 C376.281266,684.926459 369.524387,700.079878 362.790534,715.185333 C362.913334,715.625633 362.913334,716.041952 362.741606,716.45827 L357.208891,728.698419 L353.241875,737.487152 C344.501009,756.827737 335.785087,776.143381 327.044222,795.459026 L433.794837,763.021674 Z M503.453137,494.559541 L502.571472,493.849689 L239.53675,482.123704 C261.965019,508.269274 284.441256,534.439785 306.893509,560.586315 C331.818072,589.669137 356.743594,618.680015 381.6931,647.738856 C382.769519,648.987811 383.846897,650.260748 384.949219,651.557667 C386.050581,652.879526 387.176887,654.153422 388.303194,655.475281 C388.352122,655.475281 388.352122,655.499263 388.352122,655.499263 C388.40105,655.548185 388.425994,655.597107 388.474922,655.622048 L388.866347,655.940522 L422.042494,609.205411 C422.801359,608.152144 423.585169,607.075856 424.344034,605.973667 L424.490819,605.777978 C424.613619,605.582289 424.785347,605.3866 424.907187,605.190911 L424.931172,605.16597 C424.981059,605.117048 425.029028,605.044144 425.053972,604.994263 L425.176772,604.896419 C425.2257,604.847496 425.249684,604.798574 425.298612,604.798574 C425.3485,604.774593 425.421412,604.72567 425.470341,604.70073 L425.494325,604.651807 C425.544212,604.651807 425.592181,604.627826 425.617125,604.627826 C425.666053,604.577944 425.690037,604.577944 425.788853,604.529981 C425.812837,604.529981 425.910694,604.505041 425.935637,604.505041 C425.984566,604.505041 426.058437,604.456119 426.107366,604.456119 C426.033494,603.990878 426.107366,603.525637 426.375991,603.109319 C452.060378,566.926059 477.76875,530.718819 503.453137,494.559541 Z M496.719284,245.193381 L568.017156,176.523848 L380.958219,213.025581 L407.767953,330.902237 L496.719284,245.193381 Z M380.198394,209.64707 L568.849894,172.850844 L339.114119,28.8286185 C348.589866,70.4460815 358.065612,112.089444 367.516416,153.75583 L379.391559,206.145774 L380.198394,209.64707 Z M586.625194,247.61743 L572.375597,177.208759 L411.171816,332.468707 L449.978534,335.381978 L586.625194,247.61743 Z M391.241759,388.40887 L595.782428,349.752641 L450.934072,338.908215 L450.910087,338.908215 C450.615559,339.103904 450.248119,339.177767 449.930566,339.177767 L449.782822,339.177767 L406.568734,336.067848 L228.298631,323.14183 C227.711494,323.092907 227.148341,322.750452 226.854772,322.236289 L226.829828,322.138444 L226.413459,322.089522 C219.925206,321.575359 213.388025,321.110119 206.874828,320.619937 L117.091719,313.887856 L254.741884,351.344052 L254.790812,351.344052 L391.241759,388.40887 Z M602.270681,711.806822 L593.162375,657.409148 L433.158772,614.566711 C453.578109,650.578263 473.997447,686.590774 494.417744,722.651248 L505.068725,741.330904 L512.756197,739.005659 L578.717066,718.955222 C578.765994,718.955222 578.814922,718.9063 578.839866,718.9063 L578.887834,718.9063 L587.311147,716.360426 L602.270681,711.806822 Z M601.242231,356.558585 L604.914719,351.539741 L398.831375,390.514444 L546.667225,430.688222 L601.242231,356.558585 Z M606.775906,347.108922 L587.360075,251.265493 L455.75685,335.799256 L606.775906,347.108922 Z M432.913172,603.917015 L610.056969,571.895981 L506.316872,496.616193 C480.780228,532.554841 455.243584,568.51747 429.705981,604.505041 L432.840259,603.917015 L432.913172,603.917015 Z M635.936109,834.531574 L657.972953,829.733359 L327.312847,800.282181 L385.830884,889.466433 L451.448297,875.071789 L521.105637,859.746663 L635.936109,834.531574 Z M605.673584,473.849133 L660.004909,465.0604 L546.838953,434.458111 L389.870812,391.98307 C389.503372,391.910167 389.184859,391.664596 388.940219,391.396004 L120.054269,318.270711 L503.453137,490.398274 L507.51705,489.737344 L605.673584,473.849133 Z M664.828647,462.8071 L642.547162,418.986219 L608.686022,352.397319 L552.0781,432.156848 L664.828647,462.8071 Z M639.707412,948.638341 L666.958459,831.274889 L530.777097,861.191307 L525.561934,862.316519 L639.707412,948.638341 Z M772.705569,322.676589 L684.513103,129.813678 L639.144259,148.492374 L576.92975,174.148722 L772.705569,322.676589 Z M762.398044,331.955504 L773.685091,327.768337 L612.872734,205.779337 L585.303175,184.896263 L684.489119,301.0357 L723.320781,346.496915 L762.398044,331.955504 Z M351.724144,791.566352 L787.641119,714.720093 L604.523294,714.720093 L504.750212,745.05187 L351.724144,791.566352 Z M605.796384,711.267719 L794.251212,711.267719 L596.933678,658.437474 L605.796384,711.267719 Z M595.342075,654.422015 L798.756437,708.893552 L613.950112,574.736348 L433.574181,607.295526 L433.525253,607.295526 L433.525253,607.345407 L433.452341,607.345407 L426.866231,608.495559 C426.694503,608.74017 426.547719,608.9608 426.375991,609.156489 L430.073422,610.135893 L595.219275,654.374052 C595.244219,654.374052 595.293147,654.422015 595.342075,654.422015 Z M691.515581,808.042589 L801.278634,715.797341 L336.984306,797.662444 L668.720831,827.186526 L691.515581,808.042589 Z M801.865772,706.860881 L667.228044,467.385644 L576.121956,482.123704 L508.864012,492.99307 C508.716269,493.237681 508.520556,493.507233 508.349787,493.776785 L801.865772,706.860881 Z M847.161703,369.534485 L830.243125,310.436441 L829.435331,310.705033 L781.837859,328.405285 L847.161703,369.534485 Z M840.233097,303.018489 L866.626462,293.225411 L682.9215,116.030081 L688.381303,126.190556 L688.381303,126.239478 C688.406247,126.2884 688.406247,126.2884 688.406247,126.312381 C688.406247,126.312381 688.455175,126.312381 688.455175,126.361304 L778.165372,326.080041 L830.75735,306.543767 C830.75735,306.543767 830.806278,306.543767 830.806278,306.518826 L840.233097,303.018489 Z M806.468853,707.914148 C831.026934,695.257681 855.585016,682.575315 880.117194,669.918848 L674.744747,473.530659 L806.468853,707.914148 Z M897.697741,556.130556 L721.386681,349.630815 L721.361737,349.630815 L684.635903,306.61763 L576.562309,180.049126 L610.66905,348.430781 L648.301494,422.437633 L669.479697,464.178841 L897.697741,556.130556 Z M899.704753,553.070519 L849.193659,376.633004 L774.982166,330.951159 L733.506466,346.37413 L725.695234,349.288359 L835.066862,477.373452 L899.704753,553.070519 Z M909.522997,181.713441 L862.073269,132.138922 C794.325084,111.819893 726.552916,91.4759222 658.804731,71.1559333 L663.530612,79.9696074 L663.530612,79.9945481 L677.289969,105.577033 L909.522997,181.713441 Z M866.186109,287.937974 C882.296894,254.300589 898.431662,220.639222 914.542447,186.976896 L682.725787,110.962315 L866.186109,287.937974 Z M916.550419,877.618622 C916.476547,838.055893 916.403634,798.470141 916.305778,758.90837 L915.301312,758.516993 L807.644087,714.988685 L696.192534,808.629656 L916.550419,877.618622 Z M851.569072,986.510856 L918.239878,881.77893 L693.058256,811.274333 L671.97695,829.022548 C671.97695,829.022548 771.456462,916.347756 851.569072,986.510856 Z M924.556403,646.980081 C916.403634,618.263696 908.249906,589.52237 900.096178,560.805985 L677.094256,470.959844 L883.153616,668.352378 C896.962859,661.227959 910.748119,654.1045 924.556403,646.980081 Z M948.330675,730.75507 C940.741059,704.070396 933.175428,677.385722 925.609797,650.701048 L886.190037,671.241667 L948.330675,730.75507 Z M840.747322,334.256767 L951.023641,309.457037 L901.565941,283.922515 L833.573116,309.187485 L840.747322,334.256767 Z M918.019222,184.504885 L954.255775,154.539544 L920.320762,149.618544 L869.981397,134.514048 C885.994325,151.185015 902.006294,167.832959 918.019222,184.504885 Z M970.292687,252.146093 L919.071656,188.740015 L870.250981,291.85463 L920.320762,273.248837 L970.292687,252.146093 Z M970.734,336.802641 L951.440009,312.810607 C919.488025,319.886104 887.560984,326.985581 855.609,334.061078 C894.000309,334.966619 932.366675,335.8971 970.734,336.802641 Z M920.320762,756.802796 L979.279153,764.71093 L883.153616,672.808137 L808.574681,711.659096 L920.320762,756.802796 Z M981.262181,957.32923 C960.939741,894.215726 940.618259,831.128122 920.320762,768.039559 L920.320762,878.792756 L920.320762,878.891559 C940.618259,905.03713 960.939741,931.1827 981.262181,957.32923 Z M984.396459,955.247637 C983.514794,893.408989 982.633128,831.569381 981.751462,769.728815 L921.667725,760.965022 L984.396459,955.247637 Z M984.5183,616.035337 L1006.03996,603.550578 L920.320762,568.95873 L906.266878,563.302937 L929.061628,644.654837 C947.546866,635.10637 966.033062,625.583804 984.5183,616.035337 Z M975.386009,336.900485 C986.354544,337.170037 997.348022,337.414648 1008.31752,337.683241 C1000.38444,334.036137 992.451372,330.388074 984.5183,326.74097 L955.676609,311.856144 C955.528866,311.905067 955.358097,311.929048 955.210353,311.953989 L975.386009,336.900485 Z M957.97815,151.454567 L1014.3894,104.842241 C981.43295,86.5309407 946.323662,67.3121815 914.321791,50.3467222 L864.985931,129.323496 C865.010875,129.348437 865.059803,129.397359 865.084747,129.421341 L920.320762,146.020363 L957.97815,151.454567 Z M984.5183,698.978648 L1051.09125,621.740052 L1010.10483,605.190911 L984.5183,620.050796 L930.090078,648.375804 L953.619709,732.395404 L984.5183,698.978648 Z M1010.07989,601.200393 L1119.40163,537.818296 L907.858481,559.998289 L919.855466,564.869407 L919.634809,562.960481 L920.320762,565.065096 L1010.07989,601.200393 Z M1119.52443,649.379189 L1054.51814,623.135774 L987.040497,701.401737 L987.187281,701.548504 L955.407025,736.312059 L984.5183,737.2176 L1113.8929,736.704396 C1115.77807,707.619656 1117.63926,678.487911 1119.52443,649.379189 Z M1053.66142,618.752919 L1120.60181,541.098963 L1014.1438,602.840726 L1053.66142,618.752919 Z M904.136106,555.713278 L1122.04662,532.726548 L853.6749,379.399507 L904.136106,555.713278 Z M1122.24234,529.004622 L1111.68921,515.638304 L984.5183,353.914867 L973.794406,340.57253 L841.7019,337.585396 L851.642944,372.348952 L1122.24234,529.004622 Z M924.874916,185.116893 L1123.78501,179.118644 L960.841884,155.494007 L924.874916,185.116893 Z M1126.30625,544.207922 L1126.57583,539.531533 L1057.09022,620.148641 L1119.79305,645.38867 C1121.94877,611.653441 1124.12751,577.943152 1126.30625,544.207922 Z M974.480359,250.383933 L1135.53736,182.37437 L924.213906,188.740015 L974.480359,250.383933 Z M1137.56931,915.612963 L987.799362,965.725626 C999.209209,980.439704 1010.64304,995.152822 1022.07687,1009.86594 C1075.4776,966.5103 1137.56931,915.612963 1137.56931,915.612963 Z M988.264659,961.881874 L1142.22132,910.447352 L986.036991,771.491933 L988.264659,961.881874 Z M964.588244,152.43397 L1144.71857,178.481696 C1144.71857,178.481696 1087.15607,145.309552 1019.18819,107.486919 L964.588244,152.43397 Z M1177.72299,476.982074 L1216.77531,433.404844 C1150.08052,402.779533 1083.41067,372.153263 1016.73987,341.551933 L978.422431,340.695315 L984.5183,348.18617 L1128.77952,531.698222 L1139.06306,520.24083 L1177.72299,476.982074 Z M1218.1712,430.222981 L1228.47969,346.326167 L1025.75032,341.747622 L1218.1712,430.222981 Z M1234.258,826.966856 L1218.04936,798.053822 L1186.88023,741.01243 L984.5183,740.841681 L965.102469,740.327519 L984.5183,747.548822 L1234.258,826.966856 Z M1160.7315,895.488663 L1234.50168,830.662881 L984.5183,751.171944 L959.66665,741.624437 L984.5183,765.420781 L1145.60024,908.783037 L1160.7315,895.488663 Z M1147.6322,176.279237 L1234.79621,97.2535407 L1100.23044,40.7992148 L1021.73437,105.405326 C1090.04571,143.228919 1147.6322,176.279237 1147.6322,176.279237 Z M984.5183,301.9163 L1238.39579,246.026019 L1147.80392,180.661133 L1147.73005,180.636193 L920.320762,276.945822 L905.752653,282.356044 L956.263747,308.281944 L984.5183,301.9163 Z M1228.92004,342.922715 L1240.47667,249.086056 L1044.4802,292.246967 L984.5183,305.466519 C976.6591,307.204696 968.7999,308.942874 960.939741,310.681052 L984.5183,322.799374 L1017.37593,337.90387 C1087.89096,339.569144 1158.40502,341.233459 1228.92004,342.922715 Z M1236.68138,309.261348 L1335.71958,316.214059 L1246.23004,251.65687 L1243.97743,250.016537 L1243.78172,251.461181 L1236.68138,309.261348 Z M1189.01004,737.609937 L1338.38857,737.756704 L1122.97626,650.774911 C1121.11603,679.686985 1119.25484,708.599059 1117.39462,737.536074 L1185.60714,737.609937 C1185.63112,737.561015 1185.63112,737.536074 1185.68101,737.487152 C1185.68101,737.413289 1185.70499,737.365326 1185.70499,737.340385 C1185.75392,737.291463 1185.80285,737.267481 1185.82779,737.169637 C1185.82779,737.144696 1185.87672,737.095774 1185.92565,737.071793 C1185.95059,737.021911 1185.99856,736.972989 1186.04845,736.949007 C1186.07243,736.900085 1186.12136,736.875144 1186.14631,736.826222 C1186.19523,736.7773 1186.24416,736.752359 1186.26815,736.752359 C1186.366,736.704396 1186.39095,736.679456 1186.43987,736.630533 L1186.4888,736.630533 C1186.51279,736.606552 1186.56267,736.606552 1186.61064,736.55667 C1186.68452,736.55667 1186.70946,736.507748 1186.80732,736.483767 C1186.88023,736.483767 1186.9541,736.434844 1187.05196,736.434844 L1187.12583,736.434844 C1187.24767,736.409904 1187.36951,736.434844 1187.44338,736.434844 L1187.49231,736.434844 C1187.59017,736.434844 1187.68898,736.483767 1187.81082,736.483767 C1187.93266,736.507748 1188.00653,736.55667 1188.08041,736.606552 L1188.12933,736.630533 C1188.20225,736.679456 1188.27612,736.704396 1188.32505,736.752359 C1188.37397,736.7773 1188.39892,736.7773 1188.39892,736.7773 L1188.56969,736.949007 C1188.59463,736.972989 1188.64356,737.021911 1188.64356,737.071793 C1188.69249,737.095774 1188.71647,737.144696 1188.76636,737.169637 C1188.81433,737.2176 1188.83927,737.291463 1188.83927,737.340385 L1189.01004,737.609937 Z M1123.24584,646.760411 L1349.21032,737.756704 L1345.26824,734.182504 C1345.24426,734.157563 1345.24426,734.108641 1345.19533,734.108641 L1130.22434,538.184733 L1129.83195,544.403611 C1127.62827,578.530219 1125.42554,612.657785 1123.24584,646.760411 Z M1360.20379,318.514363 L1237.51412,99.5049222 L1150.52087,178.383852 L1249.02182,249.40453 L1342.91873,316.996815 L1343.16337,317.241426 C1348.84383,317.657744 1354.54828,318.074063 1360.20379,318.514363 Z M1366.05598,476.835307 L1264.59344,350.829889 C1264.47064,350.805907 1264.3488,350.805907 1264.226,350.756985 C1264.226,350.756985 1264.20106,350.732044 1264.15309,350.732044 C1264.07922,350.683122 1263.98136,350.6342 1263.95737,350.609259 C1263.8835,350.561296 1263.83457,350.536356 1263.7607,350.487433 C1263.71177,350.487433 1263.66285,350.438511 1263.63886,350.41357 C1263.54005,350.340667 1263.46713,350.267763 1263.44219,350.169919 L1263.39326,350.169919 L1235.89757,315.258637 L1221.57411,431.618704 L1307.12253,458.376281 L1366.05598,476.835307 Z M1375.40893,474.068804 L1449.91495,409.511615 L1240.59851,315.405404 L1371.24716,477.691926 L1375.40893,474.068804 Z M1494.08362,715.7724 L1490.8275,712.467752 L1231.02491,446.918889 C1260.89601,492.478907 1290.79109,538.11183 1320.73607,583.72077 L1350.70406,629.475519 C1372.59316,662.844311 1394.50625,696.261067 1416.42029,729.6289 C1430.57203,751.245807 1444.74776,772.813793 1458.90046,794.406719 L1458.97337,794.553485 L1488.91738,727.425481 L1494.08362,715.7724 Z M1364.41545,318.833796 L1497.65825,328.821604 L1244.56553,104.916104 L1364.41545,318.833796 Z M1486.93435,628.325367 L1511.29672,646.343133 C1487.39965,618.483367 1463.47859,590.624559 1439.60647,562.813715 C1416.37136,535.761644 1393.18423,508.734515 1369.99805,481.682444 L1323.89433,467.238878 L1228.96897,437.518148 C1313.73263,500.190393 1398.52219,562.862637 1483.33574,625.509941 C1484.04567,626.073026 1484.7796,626.61213 1485.49049,627.150274 L1486.494,627.885067 C1486.54293,627.933989 1486.61584,627.95797 1486.66477,628.006893 C1486.73864,628.080756 1486.8365,628.154619 1486.91037,628.276444 L1486.93435,628.325367 Z M1511.34565,880.776504 L1457.77319,799.179993 L1457.77319,799.156011 L1455.88898,796.266722 C1441.73628,774.674756 1427.56055,753.057848 1413.40881,731.513844 L1317.72459,585.531852 C1284.93987,535.565956 1252.20407,485.624041 1219.42031,435.658144 L1141.75602,522.49317 L1131.15397,534.293019 L1347.0805,731.122467 L1347.32514,731.122467 C1347.39902,731.122467 1347.49687,731.122467 1347.56978,731.146448 L1347.59473,731.146448 C1347.69258,731.146448 1347.81538,731.19633 1347.8883,731.244293 C1348.0111,731.318156 1348.08497,731.342137 1348.20681,731.392019 L1348.20681,731.416 C1348.28068,731.513844 1348.37854,731.537826 1348.45145,731.611689 L1348.47639,731.611689 L1354.94066,738.270867 C1354.98863,738.270867 1354.98863,738.270867 1354.98863,738.294848 L1447.71127,822.80463 L1511.34565,880.776504 Z M1511.786,208.789493 L1503.38763,171.725633 L1499.66622,155.445085 L1223.94952,67.214337 L1239.22757,95.3925778 L1511.786,208.789493 Z M1221.18268,795.924267 L1513.42653,887.458704 L1352.98162,741.209078 L1190.89617,741.061352 L1221.18268,795.924267 Z M1401.68045,981.075693 L1516.7076,892.08713 L1225.71285,800.967093 L1401.68045,981.075693 Z M1515.13998,668.4013 L1520.15943,657.213459 L1484.58388,630.920163 C1484.58388,630.871241 1484.53496,630.871241 1484.51097,630.871241 L1481.13205,628.350307 C1399.47677,567.979326 1317.84643,507.559422 1236.14222,447.188441 L1493.44755,710.092626 L1495.60231,712.344967 C1502.16347,697.704752 1508.65172,683.065496 1515.13998,668.4013 Z M1539.79592,331.955504 L1512.74058,212.927737 L1246.93998,102.345289 L1503.38763,329.237922 L1539.79592,331.955504 Z M1375.4828,478.622407 L1624.43773,487.704674 L1453.43969,411.103026 L1380.45236,474.313415 L1375.4828,478.622407 Z M1634.03628,737.095774 L1626.76326,724.2676 C1605.78077,687.300626 1584.79828,650.260748 1563.81483,613.268833 L1559.67704,612.143622 L1527.11298,658.046096 C1556.22521,679.5642 1585.31154,701.083263 1614.39979,722.603285 L1634.03628,737.095774 Z M1569.2257,763.021674 L1635.84758,742.775548 L1612.24504,725.319907 C1582.71643,703.48237 1553.13986,681.620852 1523.61126,659.784274 L1523.04907,659.367956 L1518.44598,669.772081 C1511.71309,684.926459 1504.95525,700.079878 1498.2214,715.185333 C1498.3442,715.625633 1498.3442,716.041952 1498.17247,716.45827 L1492.63976,728.698419 L1488.67274,737.487152 C1479.93187,756.827737 1471.21595,776.143381 1462.47509,795.459026 L1569.2257,763.021674 Z M1638.884,494.559541 L1638.00234,493.849689 L1374.96762,482.123704 C1397.39588,508.269274 1419.87212,534.439785 1442.32437,560.586315 C1467.24894,589.669137 1492.17446,618.680015 1517.12397,647.738856 C1518.20038,648.987811 1519.27776,650.260748 1520.35514,651.557667 C1521.48145,652.879526 1522.60775,654.153422 1523.73406,655.475281 C1523.78299,655.475281 1523.78299,655.499263 1523.78299,655.499263 C1523.80793,655.548185 1523.85686,655.597107 1523.90579,655.622048 L1524.29721,655.940522 L1557.47336,609.205411 C1558.23222,608.152144 1558.99109,607.075856 1559.7749,605.973667 L1559.92168,605.777978 C1560.04448,605.582289 1560.21621,605.3866 1560.33805,605.190911 L1560.363,605.16597 C1560.41192,605.117048 1560.43591,605.044144 1560.4858,604.994263 L1560.60764,604.896419 C1560.65657,604.847496 1560.68151,604.798574 1560.72948,604.798574 C1560.77937,604.774593 1560.85228,604.72567 1560.90121,604.70073 L1560.92615,604.651807 C1560.97508,604.651807 1560.99906,604.627826 1561.04799,604.627826 C1561.09692,604.577944 1561.12186,604.577944 1561.21972,604.529981 C1561.24466,604.529981 1561.34252,604.505041 1561.3665,604.505041 C1561.41543,604.505041 1561.48834,604.456119 1561.53823,604.456119 C1561.44037,603.990878 1561.53823,603.525637 1561.80686,603.109319 C1587.49124,566.926059 1613.19962,530.718819 1638.884,494.559541 Z M1632.15015,245.193381 L1703.44898,176.523848 L1516.38908,213.025581 L1543.19882,330.902237 L1632.15015,245.193381 Z M1515.63022,209.64707 L1704.28076,172.850844 L1474.54498,28.8286185 C1484.02073,70.4460815 1493.49648,112.089444 1502.94728,153.75583 L1514.82242,206.145774 L1515.63022,209.64707 Z M1722.05702,247.61743 L1707.80646,177.208759 L1546.60268,332.468707 L1585.41036,335.381978 L1722.05702,247.61743 Z M1526.67262,388.40887 L1731.21329,349.752641 L1586.36494,338.908215 L1586.31601,338.908215 C1586.04642,339.103904 1585.67898,339.177767 1585.36143,339.177767 L1585.21369,339.177767 L1541.9996,336.067848 L1363.73046,323.14183 C1363.14236,323.092907 1362.57921,322.750452 1362.28564,322.236289 L1362.26069,322.138444 L1361.84432,322.089522 C1355.35607,321.575359 1348.81889,321.110119 1342.30665,320.619937 L1252.52258,313.887856 L1390.17275,351.344052 L1390.22168,351.344052 L1526.67262,388.40887 Z M1737.70155,711.806822 L1728.5942,657.409148 L1568.58964,614.566711 C1589.00897,650.578263 1609.42927,686.590774 1629.84861,722.651248 L1640.49959,741.330904 L1648.18802,739.005659 L1714.14793,718.955222 C1714.19686,718.955222 1714.2218,718.9063 1714.27073,718.9063 L1714.31966,718.9063 L1722.74201,716.360426 L1737.70155,711.806822 Z M1736.64911,356.558585 L1740.34654,351.539741 L1534.23826,390.514444 L1682.09809,430.688222 L1736.64911,356.558585 Z M1742.20677,347.108922 L1722.766,251.265493 L1591.18772,335.799256 L1742.20677,347.108922 Z M1568.34404,603.917015 L1745.48783,571.895981 L1641.72375,496.616193 C1616.21109,532.554841 1590.64951,568.51747 1565.13685,604.505041 L1568.27112,603.917015 L1568.34404,603.917015 Z M1771.36793,834.531574 L1793.37887,829.733359 L1462.74467,800.282181 L1521.26175,889.466433 L1586.87916,875.071789 L1656.5365,859.746663 L1771.36793,834.531574 Z M1741.10541,473.849133 L1795.43577,465.0604 L1682.24487,434.458111 L1525.30168,391.98307 C1524.93424,391.910167 1524.61572,391.664596 1524.37108,391.396004 L1255.48513,318.270711 L1638.884,490.398274 L1642.94792,489.737344 L1741.10541,473.849133 Z M1800.25951,462.8071 L1777.97899,418.986219 L1744.11689,352.397319 L1687.50897,432.156848 L1800.25951,462.8071 Z M1775.13828,948.638341 L1802.38932,831.274889 L1666.20796,861.191307 L1660.9928,862.316519 L1775.13828,948.638341 Z" id="path-1"></path>
        <linearGradient x1="52.0208058%" y1="38.8029962%" x2="52.613225%" y2="60.6291486%" id="linearGradient-3">
            <stop stop-color="#32C5FF" stop-opacity="0" offset="0%"></stop>
            <stop stop-color="#B620E0" offset="51.2583893%"></stop>
            <stop stop-color="#F7B500" stop-opacity="0" offset="100%"></stop>
        </linearGradient>
    </defs>
    <g id="Page-1" stroke="none" stroke-width="1" fill="none" fill-rule="evenodd" opacity="0.422130766">
        <g id="Desktop-HD" transform="translate(0.000000, -2634.000000)">
            <g id="bg-flavor" transform="translate(-160.000000, 2634.000000)">
                <mask id="mask-2" fill="white">
                    <use xlink:href="#path-1"></use>
                </mask>
                <g id="Clip-2"></g>
                <path d="M-119.949108,141.236052 L-103.583263,98.4777738 C-106.988334,95.9325126 -110.443325,93.4601376 -113.848396,90.9398112 C-117.74402,88.0512179 -121.639644,85.211535 -125.534308,82.3488354 L-125.584227,82.298966 L-182.374132,41.6457553 L-182.374132,296.605353 L-182.374132,296.630288 C-182.374132,296.728109 -182.374132,296.82593 -182.423091,296.923751 L-182.423091,296.997596 C-182.423091,297.021572 -182.423091,297.071441 -182.472051,297.071441 L-182.472051,304.364851 L-119.949108,141.236052 Z M-176.91085,727.641593 L-15.7752433,540.845892 L-182.374132,637.400863 L-182.374132,733.955835 L-176.91085,727.641593 Z M-14.1336669,528.754463 L-24.6935153,515.391362 L-182.374132,315.059935 L-182.374132,439.664567 L-14.1336669,528.754463 Z M-182.374132,633.411306 L-11.2431484,534.237228 L-182.374132,443.58028 L-182.374132,633.411306 Z M-10.0671653,543.954103 L-9.79740913,539.278839 L-180.41384,737.04007 L-22.488427,736.404234 C-18.3480064,672.277846 -14.2075858,608.103507 -10.0671653,543.954103 L-10.0671653,543.954103 Z M-181.051271,1069.17172 L1.20307297,915.26973 L-181.418946,976.310924 C-181.296068,1007.24822 -181.173189,1038.20949 -181.051271,1069.17172 L-181.051271,1069.17172 Z M-181.467905,972.639763 L5.85804615,910.105362 L-182.374132,742.791363 C-182.055417,819.375529 -181.737661,896.007646 -181.467905,972.639763 L-181.467905,972.639763 Z M-179.164898,305.686393 L8.35689029,178.315923 L-100.495947,100.33733 L-116.616996,142.434837 C-137.465977,196.84435 -158.339917,251.277839 -179.164898,305.686393 L-179.164898,305.686393 Z M41.3823363,476.744439 L80.4595354,433.1777 C-1.95720167,395.339237 -84.3748987,357.549685 -166.816595,319.759174 C-166.914514,319.661353 -167.037392,319.637378 -167.135311,319.563532 C-167.16027,319.514622 -167.16027,319.514622 -167.20923,319.514622 C-167.282189,319.441736 -167.356108,319.367891 -167.405067,319.294045 L-167.454026,319.294045 L-167.454026,319.245135 L-178.601386,314.130637 L-7.59232079,531.447414 L2.69777151,519.99278 L41.3823363,476.744439 Z M81.8563153,429.996603 L92.1704073,346.119986 L-171.741325,313.419997 C-171.790284,313.419997 -171.814284,313.371086 -171.814284,313.371086 L-171.986121,313.371086 L81.8563153,429.996603 Z M97.6336888,93.0199436 L88.078946,76.0096582 L88.078946,75.9847235 L81.7334371,64.72669 C81.6115188,64.4322683 81.5375999,64.1388056 81.5375999,63.8693187 C72.6202879,47.324162 63.6770562,30.7790054 54.7597442,14.208914 C48.3403164,2.3380614 41.8728892,-9.58074261 35.4534614,-21.5244814 L-175.587989,-21.5983265 L97.6336888,93.0199436 Z M97.9524043,826.644964 L81.7334371,797.738891 L50.5454047,740.711231 L-163.485443,740.540524 L-173.064186,740.540524 L97.9524043,826.644964 Z M24.3800203,895.150275 L98.1972008,830.3401 L-162.921931,747.368805 L-176.95981,742.889184 L9.23911762,908.441448 L24.3800203,895.150275 Z M11.2963681,176.113994 L98.4919165,97.1073223 L-182.374132,-20.6680691 L-182.374132,36.3106808 C-179.458654,38.4886341 -176.519176,40.6426117 -173.553779,42.7956303 C-170.418464,45.1462087 -167.258189,47.4219829 -164.072955,49.7716023 L-164.023995,49.796537 C-163.926077,49.8694232 -163.803199,49.9432684 -163.68128,50.0410893 L-163.68128,50.066024 L11.2963681,176.113994 Z M-174.388007,306.66556 L102.092825,245.843984 L11.444206,180.494835 L11.370287,180.4699 L-174.388007,306.66556 Z M92.6120009,342.717353 L104.175995,248.903284 L-91.9213504,292.053805 L-172.672511,309.797747 L-171.300691,309.993389 L-171.152853,309.993389 L92.6120009,342.717353 Z M100.378289,309.06409 L199.504547,316.015128 L109.933032,251.47348 L107.678985,249.833542 L107.483147,251.277839 L100.378289,309.06409 Z M52.6765741,737.309557 L212.978913,737.456288 L209.059289,733.882949 C209.01033,733.858014 209.01033,733.809104 208.961371,733.809104 L-6.14754152,537.932364 L-6.5392159,544.149744 C-10.6796365,608.49575 -14.820057,672.865731 -18.9854373,737.235712 L49.271503,737.309557 C49.2955027,737.260647 49.2955027,737.235712 49.345422,737.186801 C49.345422,737.112956 49.3934213,737.065005 49.3934213,737.04007 C49.4183809,736.99116 49.4673402,736.967184 49.5162995,736.869363 C49.5162995,736.844428 49.5412591,736.795518 49.5902184,736.771542 L49.7121367,736.648787 C49.7370963,736.599876 49.7860556,736.574941 49.8350149,736.526031 C49.8599746,736.477121 49.9079739,736.452186 49.9578932,736.452186 C50.0308521,736.404234 50.0558118,736.3793 50.1047711,736.330389 L50.1537304,736.330389 C50.17773,736.306413 50.2276493,736.306413 50.2756486,736.256544 C50.3495675,736.256544 50.3985268,736.207634 50.4714858,736.183658 C50.5454047,736.183658 50.6193237,736.134747 50.7172423,736.134747 L50.7902012,736.134747 C50.9130795,736.109813 51.0349977,736.134747 51.1089166,736.134747 L51.1578759,736.134747 C51.2807542,736.134747 51.3537131,736.183658 51.4765914,736.183658 C51.5994696,736.207634 51.6724286,736.256544 51.7463475,736.306413 L51.7953068,736.330389 C51.8682657,736.3793 51.9421847,736.404234 51.991144,736.452186 C52.0401033,736.477121 52.0650629,736.477121 52.0650629,736.477121 C52.1629815,736.574941 52.1869812,736.599876 52.2359405,736.648787 C52.2848998,736.672762 52.3088994,736.721673 52.3088994,736.771542 C52.3588187,736.795518 52.3828184,736.844428 52.4317777,736.869363 C52.480737,736.917315 52.5056966,736.99116 52.5056966,737.04007 L52.6765741,737.309557 Z M223.979395,318.314877 L101.210598,99.3581618 L14.1638469,178.218102 L112.726592,249.221682 L206.683324,316.797695 L206.92716,317.042247 C212.611239,317.458465 218.320277,317.874683 223.979395,318.314877 L223.979395,318.314877 Z M229.835311,476.597707 L128.308129,350.622624 C128.18525,350.598648 128.063332,350.598648 127.940454,350.549738 C127.940454,350.549738 127.915494,350.524803 127.866535,350.524803 C127.793576,350.475892 127.719657,350.426982 127.670698,350.402047 C127.597739,350.354096 127.547819,350.329161 127.474861,350.280251 C127.425901,350.280251 127.376942,350.23134 127.351982,350.206405 C127.279023,350.133519 127.181105,350.060633 127.156145,349.962812 L127.107186,349.962812 L99.6189404,315.059935 L85.2863461,431.391989 L170.864318,458.143125 L229.835311,476.597707 Z M-177.842037,1072.35282 L233.142464,1072.35282 C227.11567,1068.09473 221.088877,1063.76184 215.062083,1059.50375 C207.61355,1054.16772 200.141018,1048.80675 192.620485,1043.49565 L9.36103587,912.993956 L-177.842037,1072.35282 Z M233.485179,1068.36326 L101.162598,832.396256 L26.7809458,897.720471 L12.0566772,910.668312 L194.751655,1040.72982 C202.224188,1046.06585 209.69672,1051.37695 217.193253,1056.71298 C222.607575,1060.58074 228.070857,1064.47152 233.485179,1068.36326 L233.485179,1068.36326 Z M85.2373868,62.694509 L291.25619,128.533721 C264.453374,104.375798 237.625599,80.2188335 210.823744,56.0618691 C182.158556,30.191121 153.493367,4.34530769 124.780179,-21.4765299 L39.4710037,-21.5244814 L85.2373868,62.694509 Z M291.91762,124.176856 L222.92629,-21.3537743 L130.169542,-21.3537743 L291.91762,124.176856 Z M239.194217,473.83187 L313.746747,409.290222 L104.297913,315.206667 L235.028837,477.45412 L239.194217,473.83187 Z M350.252143,1072.35282 L285.816908,1006.48963 L264.03674,984.217153 L91.7787329,808.067626 L103.219849,828.821958 L103.268808,828.847852 L103.268808,828.896762 L239.806688,1072.35282 L350.252143,1072.35282 Z M357.944512,715.477277 L354.710319,712.173425 L94.7182107,446.688491 C124.608342,492.237541 154.522472,537.859478 184.485562,583.457438 L214.473612,629.201171 C236.376657,662.56193 258.303703,695.970641 280.230748,729.330441 C294.392465,750.942145 308.577221,772.504938 322.738938,794.092665 L322.811897,794.239396 L352.774987,727.127553 L357.944512,715.477277 Z M228.193735,318.634234 L361.521421,328.619637 L108.267456,104.768041 L228.193735,318.634234 Z M299.365193,131.127893 L362.648445,151.369145 C353.166661,109.5651 343.661837,67.8099661 334.180054,26.0308561 L258.352662,-21.4765299 L226.796955,-21.4765299 L298.90056,130.638789 C298.90056,130.662764 298.90056,130.711675 298.92456,130.73661 C299.046478,130.858406 299.218315,131.030072 299.365193,131.127893 L299.365193,131.127893 Z M350.815655,628.051296 L375.167625,646.064725 C351.256288,618.211666 327.319992,590.359565 303.432655,562.555416 C280.182749,535.509858 256.980842,508.489235 233.779895,481.443677 L187.645837,467.003588 L92.6609602,437.290013 C177.503582,499.94717 262.322205,562.604326 347.188827,625.236548 C347.924176,625.799498 348.634566,626.338472 349.369916,626.876487 L350.374061,627.611102 C350.399021,627.660013 350.47198,627.683988 350.520939,627.732899 C350.594858,627.806744 350.692777,627.880589 350.765735,628.002386 L350.815655,628.051296 Z M375.217545,880.441657 L321.610954,798.86479 L321.610954,798.840814 L319.724581,795.952221 C305.563824,774.365453 291.379068,752.753749 277.218311,731.214932 L181.472165,585.268084 C148.666556,535.314216 115.910867,485.384325 83.1062174,435.430457 L5.39245284,522.244578 L-5.21635489,534.041586 L210.847744,730.823649 L211.09254,730.823649 C211.166459,730.823649 211.264378,730.823649 211.338297,730.847624 L211.386296,730.847624 C211.460215,730.847624 211.583093,730.897494 211.656052,730.945445 C211.77893,731.01929 211.851889,731.043266 211.974768,731.093135 L211.974768,731.117111 C212.047727,731.214932 212.145645,731.238908 212.219564,731.312753 L212.268523,731.312753 L218.711951,737.970328 C218.76091,737.970328 218.76091,737.970328 218.76091,737.994303 L311.542618,822.48374 L375.217545,880.441657 Z M375.658178,208.616423 L367.254459,171.561486 L363.530672,155.284858 L87.6383123,67.0753504 L102.950093,95.2468074 L375.658178,208.616423 Z M84.8697121,795.609848 L377.299755,887.122249 L216.752619,740.907831 L54.5639071,740.760141 L84.8697121,795.609848 Z M265.48248,980.7167 L380.582908,891.74956 L89.402767,800.65146 L265.48248,980.7167 Z M379.03925,668.117582 L384.036938,656.932434 L348.438729,630.645468 C348.438729,630.596557 348.38977,630.596557 348.36481,630.596557 L344.983738,628.076231 C263.277391,567.719783 181.595044,507.314425 99.8387772,446.957978 L357.307082,709.798871 L359.48817,712.050669 C366.029516,697.413979 372.521903,682.778248 379.03925,668.117582 L379.03925,668.117582 Z M403.685936,331.752782 L376.613364,212.753671 L110.643422,102.197845 L367.254459,329.035855 L403.685936,331.752782 Z M354.048888,1071.27583 L448.030579,878.874605 L385.090043,892.678859 L267.932364,983.21401 L302.231712,1018.23772 L354.048888,1071.27583 Z M239.267176,478.384377 L488.38168,487.464457 L317.274696,410.88125 L244.264864,474.076422 L239.267176,478.384377 Z M497.985382,736.795518 L490.708687,723.970432 C469.712828,687.012358 448.71697,649.981397 427.720151,612.998388 L423.57973,611.873447 L390.994918,657.764871 C420.1497,679.277794 449.255522,700.791677 478.361344,722.306518 L497.985382,736.795518 Z M433.134473,762.715176 L499.798796,742.473925 L476.181215,725.022486 C446.633799,703.190206 417.038384,681.333951 387.490968,659.50263 L386.927456,659.086412 L382.322403,669.488033 C375.584259,684.638763 368.823076,699.788533 362.084933,714.890352 C362.207811,715.330546 362.207811,715.746764 362.035974,716.162983 L356.499733,728.400184 L352.53019,737.186801 C343.783756,756.522731 335.062281,775.833725 326.315846,795.144719 L433.134473,762.715176 Z M502.837153,494.317674 L501.954925,493.607993 L238.752623,481.88483 C261.195181,508.024106 283.685738,534.188317 306.152296,560.328552 C331.092738,589.404373 356.03414,618.408266 380.999542,647.460111 C382.076646,648.708766 383.154711,649.981397 384.257735,651.278003 C385.359799,652.599544 386.486823,653.873134 387.613847,655.194675 C387.662806,655.194675 387.662806,655.218651 387.662806,655.218651 C387.711765,655.267561 387.736725,655.316472 387.785684,655.341406 L388.177359,655.659804 L421.374642,608.935944 C422.133991,607.882931 422.9183,606.806901 423.677649,605.704977 L423.824527,605.509336 C423.947405,605.313694 424.119243,605.118052 424.241161,604.92241 L424.265161,604.897475 C424.31508,604.848565 424.363079,604.775679 424.388039,604.725809 L424.510917,604.627988 C424.559876,604.579078 424.583876,604.530168 424.632835,604.530168 C424.682755,604.506192 424.755713,604.457281 424.804673,604.432347 L424.828672,604.383436 C424.878592,604.383436 424.926591,604.359461 424.951551,604.359461 C425.00051,604.309591 425.02451,604.309591 425.123388,604.26164 C425.147388,604.26164 425.245306,604.236705 425.270266,604.236705 C425.319225,604.236705 425.393144,604.187794 425.442104,604.187794 C425.368185,603.722666 425.442104,603.257537 425.7109,602.841319 C451.411651,566.66677 477.136402,530.468246 502.837153,494.317674 L502.837153,494.317674 Z M433.061514,1072.35282 L518.026055,863.504258 L452.415796,877.920372 L357.478919,1072.35282 L433.061514,1072.35282 Z M496.099009,245.011548 L567.442305,176.358546 L380.264192,212.851492 L407.091007,330.699769 L496.099009,245.011548 Z M379.503883,209.473794 L568.275573,172.686426 L338.393433,28.6988729 C347.875217,70.3063168 357.357001,111.939654 366.813825,153.596009 L378.696535,205.973341 L379.503883,209.473794 Z M586.062198,247.435012 L571.803523,177.043292 L410.497038,332.265863 L449.328481,335.178432 L586.062198,247.435012 Z M390.554284,388.192558 L595.225267,349.545635 L450.284627,338.70382 L450.260627,338.70382 C449.965912,338.899461 449.598237,338.973307 449.280481,338.973307 L449.132644,338.973307 L405.891024,335.864137 L227.507345,322.94123 C226.919833,322.89232 226.356321,322.549947 226.062565,322.035907 L226.037606,321.938086 L225.620972,321.889176 C219.128585,321.375137 212.587239,320.910008 206.069892,320.419945 L116.229582,313.689484 L253.967445,351.136663 L254.016404,351.136663 L390.554284,388.192558 Z M601.717653,711.512654 L592.603544,657.128076 L432.498002,614.295953 C452.930349,650.298835 473.362696,686.302677 493.796003,722.354469 L504.45377,741.029628 L512.146139,738.704943 L578.149032,718.659333 C578.197991,718.659333 578.24695,718.610423 578.27191,718.610423 L578.319909,718.610423 L586.748588,716.065162 L601.717653,711.512654 Z M600.688548,356.349941 L604.363375,351.332305 L398.148735,390.297625 L546.078772,430.461732 L600.688548,356.349941 Z M606.225749,346.902553 L586.797548,251.082197 L455.110478,335.595609 L606.225749,346.902553 Z M432.252246,603.648821 L609.508902,571.635496 L505.702712,496.37383 C480.149798,532.303826 454.596885,568.257798 429.043012,604.236705 L432.179287,603.648821 L432.252246,603.648821 Z M628.054875,996.135957 L638.344968,951.982293 L521.676882,863.896501 L436.883219,1072.35282 L610.34121,1072.35282 L628.054875,996.135957 Z M635.40453,834.207861 L657.455413,829.410801 L326.584643,799.966714 L385.139962,889.129495 L450.79918,874.738316 L520.500899,859.416879 L635.40453,834.207861 Z M605.122725,473.612252 L659.488664,464.825635 L546.25061,434.230713 L389.182464,391.765898 C388.814789,391.693012 388.496074,391.4475 388.251277,391.178972 L119.194019,318.071284 L502.837153,490.157409 L506.903654,489.496638 L605.122725,473.612252 Z M664.315475,462.572877 L642.019795,418.762545 L608.137081,352.189676 L551.493094,431.930004 L664.315475,462.572877 Z M639.178236,948.287157 L666.446644,830.95196 L530.17852,860.861176 L524.960035,861.986116 L639.178236,948.287157 Z M680.607401,122.16961 L675.070201,110.005294 L673.551502,107.239457 C661.693753,85.652688 649.860002,64.0898952 638.026252,42.5021676 C626.34034,21.2088617 614.653468,-0.0844441425 602.967556,-21.3537743 L382.934874,-21.4266605 L680.607401,122.16961 Z M634.131588,146.474264 L682.05314,126.698141 L374.971788,-21.4266605 L264.894008,-21.4266605 L336.703857,23.5335464 L573.053425,171.610397 L634.131588,146.474264 Z M772.261126,322.476101 L684.012472,129.659621 L638.614724,148.33382 L576.360577,173.983992 L772.261126,322.476101 Z M761.947034,331.752782 L773.241271,327.566624 L612.326461,205.606992 L584.739337,184.728945 L683.988473,300.840422 L722.844875,346.290693 L761.947034,331.752782 Z M856.858951,126.942693 C808.324928,80.2188335 759.741945,33.5199083 711.207922,-13.1540821 C709.762183,-14.5254926 708.340443,-15.8710094 706.944623,-17.2424199 L702.460527,-21.5983265 L607.010057,-21.3537743 L655.715918,66.6600911 C722.771916,86.7296768 789.802954,106.848173 856.858951,126.942693 L856.858951,126.942693 Z M351.011492,791.252982 L787.206191,714.425223 L603.971701,714.425223 L504.135054,744.749699 L351.011492,791.252982 Z M605.245603,710.97368 L793.820496,710.97368 L596.37725,658.156154 L605.245603,710.97368 Z M614.016997,1072.35282 L797.643161,1072.35282 L641.432283,954.356847 L614.016997,1072.35282 Z M797.643161,1067.97197 L669.460041,833.595042 L642.264591,950.636777 L797.643161,1067.97197 Z M594.784633,654.141662 L798.328591,708.600085 L613.404526,574.475179 L432.913676,607.026518 L432.864717,607.026518 L432.864717,607.076388 L432.791758,607.076388 L426.201453,608.226263 C426.029615,608.470815 425.882737,608.691391 425.7109,608.887033 L429.410687,609.866201 L594.661755,654.09371 C594.686714,654.09371 594.735674,654.141662 594.784633,654.141662 L594.784633,654.141662 Z M691.019412,807.725253 L800.852395,715.502212 L336.262264,797.347607 L668.210139,826.864581 L691.019412,807.725253 Z M801.439907,706.567904 L666.7164,467.150319 L575.552269,481.88483 L508.251475,492.75158 C508.103637,492.996133 507.9078,493.265619 507.736922,493.535106 L801.439907,706.567904 Z M846.764696,369.322717 L829.835339,310.2389 L829.027031,310.507428 L781.399234,328.203419 L846.764696,369.322717 Z M799.82329,1064.61921 L849.116662,989.307676 C771.648654,921.413265 675.14412,836.630366 675.14412,836.630366 L723.457346,924.986605 L799.82329,1064.61921 Z M857.814138,122.977111 L791.812205,-21.3537743 L707.508135,-21.5494161 C708.144606,-20.937556 708.782037,-20.3017202 709.443467,-19.6889011 L857.814138,122.977111 Z M839.831676,302.822734 L866.241857,293.032014 L682.419855,115.879343 L687.883137,126.037371 L687.883137,126.086281 C687.908096,126.135192 687.908096,126.135192 687.908096,126.159167 C687.908096,126.159167 687.957056,126.159167 687.957056,126.208078 L777.724407,325.878734 L830.349892,306.347163 C830.349892,306.347163 830.398851,306.347163 830.398851,306.322228 L839.831676,302.822734 Z M806.045921,707.620917 C830.619648,694.967498 855.193375,682.288184 879.741183,669.634764 L674.237893,473.293855 L806.045921,707.620917 Z M897.33293,555.873866 L720.909543,349.423838 L720.884583,349.423838 L684.13535,306.421008 L575.992903,179.882975 L610.121373,348.224094 L647.777792,422.213129 L668.969488,463.944288 L897.33293,555.873866 Z M899.341221,552.814565 L848.797947,376.419527 L774.539173,330.74868 L733.037049,346.167937 L725.220841,349.081465 L834.66215,477.135722 L899.341221,552.814565 Z M909.16572,181.546889 L861.685762,131.984305 C793.894415,111.670167 726.079068,91.3310947 658.287721,71.0159977 L663.016614,79.82755 L663.016614,79.8524847 L676.784736,105.428811 L909.16572,181.546889 Z M862.959664,125.718973 L910.635459,48.4500613 C860.142104,21.7718114 817.90367,1.09036555 805.114734,-0.819059839 L862.959664,125.718973 Z M865.801223,287.74585 C881.922272,254.116562 898.06732,220.4633 914.188368,186.809078 L682.224018,110.812796 L865.801223,287.74585 Z M916.19762,877.284536 C916.123701,837.731331 916.050742,798.155109 915.952823,758.602863 L914.947717,758.211579 L807.221904,714.693751 L695.699344,808.312178 L916.19762,877.284536 Z M851.174873,986.150554 L917.888155,881.443842 L692.563069,810.956219 L671.468332,828.700161 C671.468332,828.700161 771.011223,916.004346 851.174873,986.150554 L851.174873,986.150554 Z M924.208705,646.70152 C916.050742,617.992048 907.891819,589.257642 899.732896,560.54817 L676.588899,470.723659 L882.779539,668.068671 C896.597581,660.945968 910.391623,653.824223 924.208705,646.70152 L924.208705,646.70152 Z M919.970365,1072.35282 L944.200418,1072.35282 C941.089102,1069.85551 900.198489,1034.09718 851.223832,991.168191 L801.9055,1068.41217 L804.061629,1072.35282 L919.970365,1072.35282 Z M947.998123,730.456341 C940.403672,703.778091 932.833221,677.099841 925.262769,650.421591 L885.817896,670.957264 L947.998123,730.456341 Z M840.346228,334.053491 L950.692804,309.259732 L901.203595,283.731357 L833.167451,308.990245 L840.346228,334.053491 Z M912.130158,46.0275557 L953.339486,-20.7658899 L951.354235,-21.5983265 L919.970365,-21.5983265 L795.63391,-21.5983265 L803.375239,-4.58804115 C816.53281,-2.62970531 860.166104,18.6875763 912.130158,46.0275557 L912.130158,46.0275557 Z M917.667358,184.337662 L953.926998,154.379535 L919.970365,149.45972 L869.598928,134.35886 C885.622058,151.025813 901.644228,167.669749 917.667358,184.337662 L917.667358,184.337662 Z M969.974128,251.962585 L918.720463,188.571772 L869.868685,291.661562 L919.970365,273.060249 L969.974128,251.962585 Z M970.415721,336.598752 L951.109438,312.612495 C919.137097,319.686288 887.189716,326.784057 855.217375,333.85785 C893.633143,334.763172 932.023952,335.69343 970.415721,336.598752 L970.415721,336.598752 Z M919.970365,756.497796 L978.966319,764.404025 L882.779539,672.523358 L808.15309,711.364964 L919.970365,756.497796 Z M980.95061,956.975954 C960.615222,893.877644 940.280794,830.805228 919.970365,767.731854 L919.970365,878.458387 L919.970365,878.557167 C940.280794,904.696443 960.615222,930.835719 980.95061,956.975954 L980.95061,956.975954 Z M983.05778,964.783403 C962.183839,937.468359 941.309899,910.130297 920.459958,882.815252 C898.06732,917.863902 875.674681,952.912551 853.282043,987.962159 C895.029923,1024.50306 931.166685,1056.05221 944.73993,1067.70249 L983.05778,964.783403 Z M984.086885,954.894862 C983.204658,893.071101 982.32243,831.246381 981.440203,769.420702 L921.318186,760.65902 L984.086885,954.894862 Z M984.208803,615.764225 L1005.74417,603.282472 L919.970365,568.698951 L905.907527,563.04452 L928.7168,644.376835 C947.213814,634.830667 965.711789,625.310393 984.208803,615.764225 L984.208803,615.764225 Z M975.070694,336.696573 C986.046217,336.96606 997.046699,337.210613 1008.02318,337.47914 C1000.08506,333.832915 992.146929,330.18573 984.208803,326.539504 L955.348738,311.658262 C955.2009,311.707172 955.030022,311.731148 954.882184,311.756083 L975.070694,336.696573 Z M957.651745,151.2953 L1014.09893,104.694195 C981.121488,86.3873037 945.989832,67.1731712 913.967572,50.2117963 L864.60028,129.169557 C864.62524,129.194492 864.674199,129.243402 864.699159,129.267378 L919.970365,145.862404 L957.651745,151.2953 Z M1018.97374,1011.80073 C1007.63055,996.944418 996.28735,982.112086 984.944153,967.255778 L946.651262,1069.34147 L948.169961,1068.38723 C955.985208,1062.68485 985.507665,1038.9441 1018.97374,1011.80073 L1018.97374,1011.80073 Z M984.208803,698.687568 L1050.82417,621.467567 L1009.81164,604.92241 L984.208803,619.778718 L929.745905,648.096906 L953.290527,732.096279 L984.208803,698.687568 Z M1016.62178,102.590087 L1094.43346,38.3419027 L984.208803,-7.89285276 L957.308069,-19.1019758 L915.48723,47.7892908 C947.925164,64.9223318 983.400495,84.2323671 1016.62178,102.590087 L1016.62178,102.590087 Z M1009.78668,600.932852 L1119.17807,537.566015 L907.500144,559.740668 L919.504772,564.610614 L919.283975,562.702147 L919.970365,564.806255 L1009.78668,600.932852 Z M1119.30094,649.10005 L1054.25324,622.862953 L986.732607,701.110074 L986.879485,701.256805 L955.078981,736.011992 L984.208803,736.917315 L1113.66583,736.404234 C1115.5522,707.326496 1117.41457,678.201764 1119.30094,649.10005 L1119.30094,649.10005 Z M1053.39597,618.481153 L1120.37901,540.845892 L1013.85318,602.572791 L1053.39597,618.481153 Z M903.775398,555.456688 L1121.82475,532.475493 L853.282043,379.185364 L903.775398,555.456688 Z M1122.02059,528.754463 L1111.46074,515.391362 L984.208803,353.706859 L973.478077,340.367734 L841.301415,337.38132 L851.248792,372.136506 L1122.02059,528.754463 Z M924.52742,184.949522 L1123.56424,178.952718 L960.517303,155.333768 L924.52742,184.949522 Z M1126.08709,543.954103 L1126.35684,539.278839 L1056.82696,619.876539 L1119.56974,645.110492 C1121.72683,611.383384 1123.90696,577.681211 1126.08709,543.954103 L1126.08709,543.954103 Z M974.164468,250.20085 L1135.32407,182.20766 L923.865989,188.571772 L974.164468,250.20085 Z M1137.35733,915.26973 L987.491956,965.370329 C998.909072,980.080864 1010.35019,994.790441 1021.7913,1009.50002 C1075.22606,966.154814 1137.35733,915.26973 1137.35733,915.26973 L1137.35733,915.26973 Z M987.95755,961.527502 L1142.0123,910.105362 L985.728462,771.183397 L987.95755,961.527502 Z M964.26605,152.274468 L1144.51114,178.315923 C1144.51114,178.315923 1086.91197,145.151764 1018.90079,107.338236 L964.26605,152.274468 Z M1097.44686,35.8206173 L1166.87978,-21.5244814 L984.208803,-21.5983265 L958.851727,-21.5983265 L984.208803,-11.6858098 L1097.44686,35.8206173 Z M1178.05114,1072.35282 C1166.7569,1019.60818 1155.43771,966.863536 1144.14347,914.09492 L950.27617,1072.3039 L950.228171,1072.35282 L984.208803,1072.35282 L1178.05114,1072.35282 Z M1177.53659,476.744439 L1216.61379,433.1777 C1149.87651,402.559762 1083.16418,371.940864 1016.4509,341.346902 L978.109051,340.490489 L984.208803,347.979542 L1128.56193,531.447414 L1138.85202,519.99278 L1177.53659,476.744439 Z M1218.01057,429.996603 L1228.32562,346.119986 L1025.46709,341.542543 L1218.01057,429.996603 Z M1233.7889,93.0199436 L1224.2332,76.0096582 L1224.2332,75.9847235 L1217.88865,64.72669 C1217.76577,64.4322683 1217.69185,64.1388056 1217.69185,63.8693187 C1208.77454,47.324162 1199.83131,30.7790054 1190.914,14.208914 C1184.9112,3.09665281 1178.86041,-8.0635598 1172.83266,-19.2237724 L1103.03302,38.1702367 L1233.7889,93.0199436 Z M1234.10762,826.644964 L1217.88865,797.738891 L1186.69966,740.711231 L984.208803,740.540524 L964.780602,740.026484 L984.208803,747.24605 L1234.10762,826.644964 Z M1160.53427,895.150275 L1234.35145,830.3401 L984.208803,750.8683 L959.34132,741.323091 L984.208803,765.113706 L1145.39337,908.441448 L1160.53427,895.150275 Z M1147.42662,176.113994 L1234.64617,97.1073223 L1099.99466,40.6665874 L1021.44859,105.257145 C1089.80345,143.071632 1147.42662,176.113994 1147.42662,176.113994 L1147.42662,176.113994 Z M984.208803,301.72081 L1238.24804,245.843984 L1147.59846,180.494835 L1147.52454,180.4699 L919.970365,276.756344 L905.392975,282.165264 L955.936249,308.084922 L984.208803,301.72081 Z M1228.76625,342.717353 L1240.33025,248.903284 L1044.2089,292.053805 L984.208803,305.270174 C976.344596,307.007934 968.480389,308.745693 960.615222,310.483452 L984.208803,322.598857 L1017.08737,337.699717 C1087.64732,339.36459 1158.20631,341.028504 1228.76625,342.717353 L1228.76625,342.717353 Z M1236.53254,309.06409 L1335.63384,316.015128 L1246.08728,251.47348 L1243.83324,249.833542 L1243.6374,251.277839 L1236.53254,309.06409 Z M1188.83083,737.309557 L1338.30452,737.456288 L1122.75497,650.495436 C1120.89356,679.40055 1119.03119,708.305663 1117.16977,737.235712 L1185.42576,737.309557 C1185.44975,737.260647 1185.44975,737.235712 1185.49967,737.186801 C1185.49967,737.112956 1185.52367,737.065005 1185.52367,737.04007 C1185.57263,736.99116 1185.62159,736.967184 1185.64655,736.869363 C1185.64655,736.844428 1185.69551,736.795518 1185.74447,736.771542 C1185.76943,736.721673 1185.81743,736.672762 1185.86735,736.648787 C1185.89135,736.599876 1185.94031,736.574941 1185.96527,736.526031 C1186.01423,736.477121 1186.06319,736.452186 1186.08719,736.452186 C1186.1851,736.404234 1186.21006,736.3793 1186.25902,736.330389 L1186.30798,736.330389 C1186.33198,736.306413 1186.3819,736.306413 1186.4299,736.256544 C1186.50382,736.256544 1186.52878,736.207634 1186.6267,736.183658 C1186.69966,736.183658 1186.77358,736.134747 1186.87149,736.134747 L1186.94541,736.134747 C1187.06733,736.109813 1187.18925,736.134747 1187.26317,736.134747 L1187.31213,736.134747 C1187.41005,736.134747 1187.50893,736.183658 1187.63084,736.183658 C1187.75276,736.207634 1187.82668,736.256544 1187.9006,736.306413 L1187.94956,736.330389 C1188.02252,736.3793 1188.09644,736.404234 1188.1454,736.452186 C1188.19436,736.477121 1188.21932,736.477121 1188.21932,736.477121 L1188.39019,736.648787 C1188.41515,736.672762 1188.46411,736.721673 1188.46411,736.771542 C1188.51307,736.795518 1188.53707,736.844428 1188.58699,736.869363 C1188.63499,736.917315 1188.65995,736.99116 1188.65995,737.04007 L1188.83083,737.309557 Z M1123.02473,646.481903 L1349.13317,737.456288 L1345.18858,733.882949 C1345.16458,733.858014 1345.16458,733.809104 1345.11562,733.809104 L1130.00767,537.932364 L1129.61504,544.149744 C1127.40995,578.268136 1125.20582,612.387487 1123.02473,646.481903 L1123.02473,646.481903 Z M1360.13365,318.314877 L1237.36581,99.3581618 L1150.31714,178.218102 L1248.88084,249.221682 L1342.83758,316.797695 L1343.08237,317.042247 C1348.76645,317.458465 1354.47453,317.874683 1360.13365,318.314877 L1360.13365,318.314877 Z M1365.98956,476.597707 L1264.46238,350.622624 C1264.3395,350.598648 1264.21758,350.598648 1264.09471,350.549738 C1264.09471,350.549738 1264.06975,350.524803 1264.02175,350.524803 C1263.94783,350.475892 1263.84991,350.426982 1263.82591,350.402047 C1263.75199,350.354096 1263.70303,350.329161 1263.62911,350.280251 C1263.58015,350.280251 1263.53119,350.23134 1263.50719,350.206405 C1263.40832,350.133519 1263.33536,350.060633 1263.3104,349.962812 L1263.26144,349.962812 L1235.74823,315.059935 L1221.41564,431.391989 L1307.01857,458.143125 L1365.98956,476.597707 Z M1182.80499,1072.35282 L1369.29672,1072.35282 C1363.26992,1068.09473 1357.24313,1063.76184 1351.21634,1059.50375 C1343.7438,1054.16772 1336.29527,1048.80675 1328.77378,1043.49565 L1148.38181,915.025178 C1159.84788,967.476355 1171.33892,1019.9026 1182.80499,1072.35282 L1182.80499,1072.35282 Z M1369.64039,1068.36326 L1237.31685,832.396256 L1162.9352,897.720471 L1148.21093,910.668312 L1330.90591,1040.72982 C1338.37844,1046.06585 1345.85097,1051.37695 1353.3475,1056.71298 C1358.76183,1060.58074 1364.22607,1064.47152 1369.64039,1068.36326 L1369.64039,1068.36326 Z M1221.39164,62.694509 L1427.41044,128.533721 C1400.60763,104.375798 1373.78081,80.2188335 1346.95304,56.0618691 C1318.28785,30.191121 1289.62362,4.34530769 1260.93443,-21.4765299 L1175.62622,-21.5244814 L1221.39164,62.694509 Z M1428.07187,124.176856 L1359.08054,-21.3537743 L1266.29979,-21.3537743 L1428.07187,124.176856 Z M1375.34847,473.83187 L1449.90196,409.290222 L1240.45217,315.206667 L1371.18405,477.45412 L1375.34847,473.83187 Z M1486.4064,1072.35282 L1421.94716,1006.48963 L1400.19099,984.217153 L1227.93299,808.067626 L1239.3741,828.821958 L1239.42402,828.847852 L1239.42402,828.896762 L1375.96094,1072.35282 L1486.4064,1072.35282 Z M1494.09876,715.477277 L1490.84057,712.173425 L1230.87246,446.688491 C1260.76259,492.237541 1290.67672,537.859478 1320.64077,583.457438 L1350.62786,629.201171 C1372.53091,662.56193 1394.45795,695.970641 1416.38596,729.330441 C1430.54672,750.942145 1444.73147,772.504938 1458.89319,794.092665 L1458.96615,794.239396 L1488.92924,727.127553 L1494.09876,715.477277 Z M1364.34799,318.634234 L1497.67567,328.619637 L1244.42171,104.768041 L1364.34799,318.634234 Z M1435.52041,131.127893 L1498.80366,151.369145 C1489.32187,109.5651 1479.81609,67.8099661 1470.33431,26.0308561 L1394.50691,-21.4765299 L1362.95121,-21.4765299 L1435.05481,130.638789 C1435.05481,130.662764 1435.05481,130.711675 1435.07881,130.73661 C1435.20169,130.858406 1435.37257,131.030072 1435.52041,131.127893 L1435.52041,131.127893 Z M1486.94495,628.051296 L1511.32284,646.064725 C1487.41054,618.211666 1463.47424,590.359565 1439.58691,562.555416 C1416.337,535.509858 1393.13509,508.489235 1369.93415,481.443677 L1323.80105,467.003588 L1228.81521,437.290013 C1313.63287,499.94717 1398.47646,562.604326 1483.34404,625.236548 C1484.05443,625.799498 1484.78882,626.338472 1485.50017,626.876487 L1486.50431,627.611102 C1486.55327,627.660013 1486.62623,627.683988 1486.67519,627.732899 C1486.74911,627.806744 1486.84703,627.880589 1486.92095,628.002386 L1486.94495,628.051296 Z M1511.3718,880.441657 L1457.76521,798.86479 L1457.76521,798.840814 L1455.87979,795.952221 C1441.71808,774.365453 1427.53332,752.753749 1413.37256,731.214932 L1317.62738,585.268084 C1284.82177,535.314216 1252.06512,485.384325 1219.26047,435.430457 L1141.5467,522.244578 L1130.9379,534.041586 L1347.002,730.823649 L1347.24679,730.823649 C1347.32071,730.823649 1347.41863,730.823649 1347.49159,730.847624 L1347.51655,730.847624 C1347.61447,730.847624 1347.73735,730.897494 1347.8103,730.945445 C1347.93318,731.01929 1348.0071,731.043266 1348.12902,731.093135 L1348.12902,731.117111 C1348.20294,731.214932 1348.30086,731.238908 1348.37382,731.312753 L1348.39878,731.312753 L1354.86716,737.970328 C1354.91516,737.970328 1354.91516,737.970328 1354.91516,737.994303 L1447.69687,822.48374 L1511.3718,880.441657 Z M1511.81243,208.616423 L1503.40871,171.561486 L1499.68492,155.284858 L1223.79256,67.0753504 L1239.08035,95.2468074 L1511.81243,208.616423 Z M1221.02396,795.609848 L1513.45401,887.122249 L1352.90687,740.907831 L1190.71816,740.760141 L1221.02396,795.609848 Z M1401.63673,980.7167 L1516.73716,891.74956 L1225.55702,800.65146 L1401.63673,980.7167 Z M1515.16854,668.117582 L1520.19119,656.932434 L1484.59298,630.645468 C1484.59298,630.596557 1484.54402,630.596557 1484.52002,630.596557 L1481.13895,628.076231 C1399.43164,567.719783 1317.7493,507.314425 1235.99303,446.957978 L1493.46229,709.798871 L1495.61842,712.050669 C1502.18377,697.413979 1508.67616,682.778248 1515.16854,668.117582 L1515.16854,668.117582 Z M1539.84019,331.752782 L1512.76762,212.753671 L1246.79767,102.197845 L1503.40871,329.035855 L1539.84019,331.752782 Z M1490.2041,1071.27583 L1584.18483,878.874605 L1521.24429,892.678859 L1404.08662,983.21401 L1438.38596,1018.23772 L1490.2041,1071.27583 Z M1375.42239,478.384377 L1624.53593,487.464457 L1453.42895,410.88125 L1380.39512,474.076422 L1375.42239,478.384377 Z M1634.14059,736.795518 L1626.86294,723.970432 C1605.86708,687.012358 1584.87122,649.981397 1563.8744,612.998388 L1559.73398,611.873447 L1527.14917,657.764871 C1556.27995,679.277794 1585.38481,700.791677 1614.4916,722.306518 L1634.14059,736.795518 Z M1569.28873,762.715176 L1635.95305,742.473925 L1612.33547,725.022486 C1582.78805,703.190206 1553.19264,681.333951 1523.64522,659.50263 L1523.08267,659.086412 L1518.47665,669.488033 C1511.73947,684.638763 1504.97733,699.788533 1498.23919,714.890352 C1498.36206,715.330546 1498.36206,715.746764 1498.19023,716.162983 L1492.65399,728.400184 L1488.68444,737.186801 C1479.93801,756.522731 1471.21653,775.833725 1462.4701,795.144719 L1569.28873,762.715176 Z M1638.9914,494.317674 L1638.10918,493.607993 L1374.90688,481.88483 C1397.34943,508.024106 1419.83999,534.188317 1442.30655,560.328552 C1467.24699,589.404373 1492.18839,618.408266 1517.15379,647.460111 C1518.2309,648.708766 1519.30896,649.981397 1520.38703,651.278003 C1521.51405,652.599544 1522.64107,653.873134 1523.7681,655.194675 C1523.81706,655.194675 1523.81706,655.218651 1523.81706,655.218651 C1523.84202,655.267561 1523.89098,655.316472 1523.93994,655.341406 L1524.33161,655.659804 L1557.52889,608.935944 C1558.28824,607.882931 1559.04759,606.806901 1559.8319,605.704977 L1559.97878,605.509336 C1560.10166,605.313694 1560.27349,605.118052 1560.39541,604.92241 L1560.42037,604.897475 C1560.46933,604.848565 1560.49333,604.775679 1560.54325,604.725809 L1560.66517,604.627988 C1560.71413,604.579078 1560.73909,604.530168 1560.78709,604.530168 C1560.83701,604.506192 1560.90997,604.457281 1560.95892,604.432347 L1560.98388,604.383436 C1561.03284,604.383436 1561.05684,604.359461 1561.1058,604.359461 C1561.15476,604.309591 1561.17972,604.309591 1561.27764,604.26164 C1561.3026,604.26164 1561.40052,604.236705 1561.42452,604.236705 C1561.47348,604.236705 1561.54644,604.187794 1561.59636,604.187794 C1561.49844,603.722666 1561.59636,603.257537 1561.86515,602.841319 C1587.5659,566.66677 1613.29065,530.468246 1638.9914,494.317674 L1638.9914,494.317674 Z M1569.21577,1072.35282 L1654.15631,863.504258 L1588.57005,877.920372 L1493.60917,1072.35282 L1569.21577,1072.35282 Z M1632.25326,245.011548 L1703.59752,176.358546 L1516.41844,212.851492 L1543.24526,330.699769 L1632.25326,245.011548 Z M1515.6591,209.473794 L1704.42983,172.686426 L1474.54769,28.6988729 C1484.02947,70.3063168 1493.51125,111.939654 1502.96808,153.596009 L1514.85079,205.973341 L1515.6591,209.473794 Z M1722.21741,247.435012 L1707.95777,177.043292 L1546.65129,332.265863 L1585.48369,335.178432 L1722.21741,247.435012 Z M1526.70854,388.192558 L1731.37952,349.545635 L1586.43888,338.70382 L1586.38992,338.70382 C1586.12016,338.899461 1585.75249,338.973307 1585.43473,338.973307 L1585.2869,338.973307 L1542.04528,335.864137 L1363.66256,322.94123 C1363.07409,322.89232 1362.51057,322.549947 1362.21682,322.035907 L1362.19186,321.938086 L1361.77522,321.889176 C1355.28284,321.375137 1348.74149,320.910008 1342.2251,320.419945 L1252.38383,313.689484 L1390.1217,351.136663 L1390.17066,351.136663 L1526.70854,388.192558 Z M1737.87191,711.512654 L1728.75876,657.128076 L1568.65225,614.295953 C1589.0846,650.298835 1609.51791,686.302677 1629.95025,722.354469 L1640.60802,741.029628 L1648.30135,738.704943 L1714.30328,718.659333 C1714.35224,718.659333 1714.3772,718.610423 1714.42616,718.610423 L1714.47512,718.610423 L1722.90284,716.065162 L1737.87191,711.512654 Z M1736.8188,356.349941 L1740.51859,351.332305 L1534.27899,390.297625 L1682.23302,430.461732 L1736.8188,356.349941 Z M1742.38,346.902553 L1722.92684,251.082197 L1591.26473,335.595609 L1742.38,346.902553 Z M1568.4065,603.648821 L1745.66315,571.635496 L1641.83296,496.37383 C1616.30405,532.303826 1590.72618,568.257798 1565.19726,604.236705 L1568.33354,603.648821 L1568.4065,603.648821 Z M1764.20913,996.135957 L1774.47522,951.982293 L1657.83113,863.896501 L1573.03747,1072.35282 L1746.49642,1072.35282 L1764.20913,996.135957 Z M1771.55974,834.207861 L1793.58471,829.410801 L1462.73985,799.966714 L1521.29421,889.129495 L1586.95343,874.738316 L1656.65515,859.416879 L1771.55974,834.207861 Z M1741.27794,473.612252 L1795.64292,464.825635 L1682.3799,434.230713 L1525.33672,391.765898 C1524.96904,391.693012 1524.65033,391.4475 1524.40553,391.178972 L1255.34827,318.071284 L1638.9914,490.157409 L1643.05791,489.496638 L1741.27794,473.612252 Z M1800.46973,462.572877 L1778.17501,418.762545 L1744.29133,352.189676 L1687.64735,431.930004 L1800.46973,462.572877 Z M1775.33249,948.287157 L1802.6009,830.95196 L1666.33277,860.861176 L1661.11429,861.986116 L1775.33249,948.287157 Z M1816.76165,122.16961 L1811.22541,110.005294 L1809.70575,107.239457 C1797.848,85.652688 1786.01425,64.0898952 1774.1565,42.5021676 C1762.49459,21.2088617 1750.80772,-0.0844441425 1739.12181,-21.3537743 L1519.06417,-21.4266605 L1816.76165,122.16961 Z M1770.26088,146.474264 L1818.20739,126.698141 L1511.12604,-21.4266605 L1401.04826,-21.4266605 L1472.85811,23.5335464 L1709.20768,171.610397 L1770.26088,146.474264 Z M1908.41538,322.476101 L1820.16672,129.659621 L1774.76898,148.33382 L1712.49083,173.983992 L1908.41538,322.476101 Z M1898.10129,331.752782 L1909.37056,327.566624 L1748.48071,205.606992 L1720.89359,184.728945 L1820.14272,300.840422 L1858.99913,346.290693 L1898.10129,331.752782 Z M1993.0132,126.942693 C1944.47918,80.2188335 1895.8962,33.5199083 1847.36217,-13.1540821 C1845.91643,-14.5254926 1844.49566,-15.8710094 1843.09888,-17.2424199 L1838.59078,-21.5983265 L1743.16431,-21.3537743 L1791.87017,66.6600911 C1858.92617,86.7296768 1925.95721,106.848173 1993.0132,126.942693 L1993.0132,126.942693 Z M1487.16574,791.252982 L1923.36044,714.425223 L1740.12595,714.425223 L1640.26435,744.749699 L1487.16574,791.252982 Z M1741.40081,710.97368 L1929.97571,710.97368 L1732.5315,658.156154 L1741.40081,710.97368 Z M1750.14629,1072.35282 L1933.79741,1072.35282 L1777.58654,954.356847 L1750.14629,1072.35282 Z M1933.79741,1067.97197 L1805.58933,833.595042 L1778.4198,950.636777 L1933.79741,1067.97197 Z M1730.93889,654.141662 L1934.4838,708.600085 L1749.55878,574.475179 L1569.06793,607.026518 L1569.01993,607.026518 L1569.01993,607.076388 L1568.94601,607.076388 L1562.3557,608.226263 C1562.18387,608.470815 1562.03699,608.691391 1561.86515,608.887033 L1565.56494,609.866201 L1730.81601,654.09371 C1730.84097,654.09371 1730.88993,654.141662 1730.93889,654.141662 L1730.93889,654.141662 Z M1827.14966,807.725253 L1937.00665,715.502212 L1472.41652,797.347607 L1804.36535,826.864581 L1827.14966,807.725253 Z M1937.59512,706.567904 L1802.87065,467.150319 L1711.70652,481.88483 L1644.40573,492.75158 C1644.25885,492.996133 1644.06301,493.265619 1643.89117,493.535106 L1937.59512,706.567904 Z M1993.96839,122.977111 L1927.96646,-21.3537743 L1843.66239,-21.5494161 C1844.29982,-20.937556 1844.93629,-20.3017202 1845.59772,-19.6889011 L1993.96839,122.977111 Z M1975.98593,302.822734 L2002.39707,293.032014 L1818.57507,115.879343 L1824.03835,126.037371 L1824.03835,126.086281 C1824.06331,126.135192 1824.06331,126.135192 1824.06331,126.159167 C1824.06331,126.159167 1824.11131,126.159167 1824.11131,126.208078 L1913.87962,325.878734 L1966.50414,306.347163 C1966.50414,306.347163 1966.55406,306.347163 1966.55406,306.322228 L1975.98593,302.822734 Z M2033.46222,555.873866 L1857.06379,349.423838 L1857.0398,349.423838 L1820.2896,306.421008 L1712.14715,179.882975 L1746.27562,348.224094 L1783.93204,422.213129 L1805.1247,463.944288 L2033.46222,555.873866 Z M2035.47147,552.814565 L1965.99055,310.2389 L1965.18224,310.507428 L1869.1913,346.167937 L1861.37605,349.081465 L1970.8164,477.135722 L2035.47147,552.814565 Z M1940.21684,1072.35282 L2078.0027,1072.35282 L1811.29837,836.630366 L1859.5876,924.986605 L1940.21684,1072.35282 Z M2084.37317,194.323065 L2084.37317,157.92794 L1998.86912,132.302703 C1930.73506,111.865809 1862.57604,91.4289156 1794.44293,71.0159977 L1799.17087,79.82755 L1799.17087,79.8524847 L1812.93995,105.428811 L2084.37317,194.323065 Z M2084.37317,262.584783 L2084.37317,197.945314 L1818.37923,110.812796 L2006.02294,291.661562 L2084.37317,262.584783 Z M2084.37317,576.334735 L2084.37317,266.255943 L1969.32266,308.990245 L2040.81284,558.590793 L2084.37317,576.334735 Z M2084.37317,707.595983 L2084.37317,580.07974 L2038.72967,561.699004 C2038.68167,561.699004 2038.68167,561.699004 2038.65671,561.649134 L1812.74411,470.723659 L2084.37317,707.595983 Z M2084.37317,887.318849 L2084.37317,771.648525 L2051.10293,758.211579 L1943.37712,714.693751 L1831.8536,808.312178 L2084.37317,887.318849 Z M2084.37317,767.90352 L2084.47109,712.29618 L1810.36719,473.293855 L1944.30734,711.364964 L2084.37317,767.90352 Z M2084.37317,154.330624 L2084.47109,25.5906621 C2037.21097,15.1880819 1989.06958,6.32857826 1941.24499,-0.819059839 L2000.70653,129.218468 L2084.37317,154.330624 Z M2084.47109,22.065274 L2084.47109,-21.5983265 L1931.78816,-21.5983265 L1939.53045,-4.58804115 C1987.9176,2.60754836 2036.64746,11.5898076 2084.47109,22.065274 L2084.47109,22.065274 Z M2084.47109,1072.35282 L2084.47109,890.965075 L1828.71732,810.956219 L1807.59858,828.700161 L2083.24615,1072.35282 L2084.47109,1072.35282 Z M2088,-23.3121101 L2088,1074.06564 C2088,1075.04577 2087.24065,1075.80436 2086.23555,1075.80436 L2083.66278,1075.80436 C2083.41799,1075.92615 2083.12327,1076 2082.80455,1076 L1570.39175,1076 L1570.34279,1076 L984.208803,1076 L919.970365,1076 L434.237497,1076 L434.187578,1076 L-182.814766,1076 C-182.937644,1076 -183.035563,1076 -183.133481,1075.97507 L-183.2314,1075.97507 C-183.305319,1075.92615 -183.379238,1075.92615 -183.477156,1075.90122 C-183.501156,1075.90122 -183.501156,1075.90122 -183.550115,1075.85231 C-183.599074,1075.85231 -183.624034,1075.80436 -183.672993,1075.80436 L-184.138587,1075.80436 C-184.236505,1075.80436 -184.309464,1075.77942 -184.358424,1075.77942 L-184.506261,1075.77942 C-184.554261,1075.72955 -184.57922,1075.72955 -184.62818,1075.72955 C-184.702099,1075.70558 -184.800017,1075.70558 -184.872976,1075.65667 L-184.921935,1075.65667 C-184.995854,1075.60776 -185.068813,1075.58378 -185.142732,1075.50994 C-185.240651,1075.43705 -185.31457,1075.38718 -185.387529,1075.31429 L-185.436488,1075.26538 C-185.510407,1075.19154 -185.559366,1075.11865 -185.632325,1075.06974 L-185.632325,1075.04577 C-185.682245,1074.94699 -185.755204,1074.84821 -185.804163,1074.77532 L-185.804163,1074.72737 C-185.829122,1074.65257 -185.878082,1074.53077 -185.878082,1074.45692 L-185.927041,1074.40897 C-185.927041,1074.28622 -185.951041,1074.1884 -185.951041,1074.06564 L-186,975.405601 C-186,975.25887 -186,975.087204 -185.927041,974.941431 L-185.927041,739.242958 C-185.951041,739.242958 -185.951041,739.218023 -185.951041,739.218023 L-185.951041,739.120203 L-185.951041,739.096227 L-186,739.047316 L-186,738.900585 L-186,738.82674 L-186,296.532467 C-186,296.360801 -186,296.21407 -185.927041,296.067338 L-185.927041,50.9713467 L-186,37.1421583 C-186,36.9714513 -186,36.8237609 -185.951041,36.6779886 L-185.951041,-23.3121101 C-185.951041,-23.409931 -185.927041,-23.5077519 -185.927041,-23.6055728 C-185.927041,-23.6055728 -185.927041,-23.6544833 -185.878082,-23.679418 C-185.878082,-23.7772389 -185.829122,-23.850125 -185.804163,-23.9728807 L-185.804163,-23.9968564 C-185.755204,-24.0707016 -185.706244,-24.1685224 -185.632325,-24.2414086 L-185.632325,-24.2663433 C-185.559366,-24.3392295 -185.510407,-24.4380094 -185.436488,-24.5108956 L-185.387529,-24.5358303 C-185.31457,-24.5847407 -185.240651,-24.6585859 -185.191692,-24.7065373 C-185.142732,-24.7065373 -185.142732,-24.7314721 -185.142732,-24.7314721 C-185.068813,-24.7803825 -184.946895,-24.8043582 -184.872976,-24.8542277 C-184.872976,-24.9021791 -184.824017,-24.9021791 -184.800017,-24.9021791 C-184.702099,-24.9271138 -184.62818,-24.9760243 -184.506261,-24.9760243 C-184.383383,-25 -184.309464,-25 -184.187546,-25 L-184.138587,-25 L604.04562,-24.8043582 L703.171877,-25 L919.970365,-25 L984.208803,-25 L1740.19987,-24.8043582 L1839.32613,-25 L2086.23555,-25 C2087.24065,-25 2088,-24.2414086 2088,-23.3121101 L2088,-23.3121101 Z" id="Fill-1" fill="url(#linearGradient-3)" mask="url(#mask-2)"></path>
            </g>
        </g>
    </g>
</svg>
