<?xml version="1.0" encoding="UTF-8"?>
<svg width="81px" height="114px" viewBox="0 0 81 114" version="1.1" xmlns="http://www.w3.org/2000/svg" xmlns:xlink="http://www.w3.org/1999/xlink">
    <!-- Generator: Sketch 56 (81588) - https://sketch.com -->
    <title>cristal</title>
    <desc>Created with Sketch.</desc>
    <defs>
        <path d="M87.4532371,0.280395962 C87.3699575,0.283537403 87.2866779,0.294532445 87.2090765,0.313381088 L87.2090765,0.313381088 L10.6183766,20.0903199 C10.5010282,20.1201636 10.3969287,20.1704266 10.3060783,20.2316847 L10.3060783,20.2316847 C10.3022928,20.2348262 10.2966147,20.2348262 10.2928293,20.2363969 L10.2928293,20.2363969 L3.08157619,25.2155801 C2.84120109,25.3805057 2.72574533,25.6208259 2.73899436,25.8595754 L2.73899436,25.8595754 L0.431771918,82.4699043 C0.431771918,82.471475 0.433664635,82.4746165 0.433664635,82.4777579 L0.433664635,82.4777579 C0.429879201,82.5578646 0.454484526,82.6348299 0.480982569,82.7117952 L0.480982569,82.7117952 C0.488553438,82.7337853 0.484768004,82.7589168 0.49423159,82.7777655 L0.49423159,82.7777655 C0.526407785,82.8468772 0.579403871,82.9034231 0.632399956,82.9615397 L0.632399956,82.9615397 C0.653219847,82.9835298 0.662683434,83.0118028 0.687288759,83.0322222 L0.687288759,83.0322222 C0.717572236,83.0604951 0.762997453,83.0762023 0.797066365,83.0997631 L0.797066365,83.0997631 C0.85763332,83.1390311 0.918200274,83.1830113 0.986338099,83.2097136 L0.986338099,83.2097136 C0.992016251,83.2112843 0.993908968,83.2144257 0.997694403,83.2159964 L0.997694403,83.2159964 C1.01662158,83.2207086 1.03744147,83.2175672 1.05447592,83.2222793 L1.05447592,83.2222793 C1.14721907,83.252123 1.24185494,83.2772545 1.34406168,83.280396 L1.34406168,83.280396 C1.36109613,83.280396 1.37245244,83.2709716 1.38948689,83.2709716 L1.38948689,83.2709716 C1.40841407,83.2709716 1.42923396,83.280396 1.44816113,83.2788252 L1.44816113,83.2788252 L71.189117,79.9944492 L71.1910097,79.9928785 C71.3083581,79.9881663 71.4275993,79.9614641 71.5411624,79.9174839 L71.5411624,79.9174839 C71.5449478,79.9159132 71.5487332,79.9159132 71.5544114,79.9127717 L71.5544114,79.9127717 C71.5581968,79.911201 71.563875,79.9127717 71.5676604,79.9096303 L71.5676604,79.9096303 C71.7910011,79.8169578 71.9499893,79.6567443 72.0294835,79.4745408 L72.0294835,79.4745408 L86.9403107,51.140318 C86.9970922,51.0319383 87.0235902,50.9188464 87.0198048,50.8073253 L87.0198048,50.8073253 L88.4317719,1.08460474 C88.4317719,1.07518041 88.4260938,1.06732681 88.4260938,1.05633177 L88.4260938,1.05633177 C88.4260938,0.99350296 88.4052739,0.935386311 88.3882394,0.875698941 L88.3882394,0.875698941 C88.3749904,0.836430934 88.371205,0.795592208 88.3522778,0.757894921 L88.3522778,0.757894921 C88.323887,0.706061153 88.28414,0.662080985 88.2425002,0.616530098 L88.2425002,0.616530098 C88.2122167,0.580403532 88.1876114,0.542706246 88.149757,0.51129184 L88.149757,0.51129184 C88.1043318,0.475165274 88.049443,0.45003375 87.9983396,0.421760786 L87.9983396,0.421760786 C87.9472363,0.393487821 87.8980256,0.363644136 87.8431368,0.344795493 L87.8431368,0.344795493 C87.8279951,0.338512612 87.8204242,0.33065901 87.8052825,0.32594685 L87.8052825,0.32594685 C87.7087539,0.296103165 87.6103326,0.283537403 87.513804,0.281966682 L87.513804,0.281966682 L87.5119113,0.280395962 L87.4532371,0.280395962 Z M38.9864241,59.8766641 L14.988661,57.4483306 L11.901639,21.4584172 L11.8978536,21.4081542 L85.9655612,2.28306429 L69.186622,41.6217532 L60.4706587,62.0521116 L38.9864241,59.8766641 Z M66.5671012,70.0486485 L62.1381426,62.8484668 L86.4046716,5.9585497 L85.1346583,50.651824 L71.0717685,77.3729171 L66.5671012,70.0486485 Z M4.61656996,26.2035631 L10.0846304,22.4275516 L13.1394761,58.0169313 L2.48915567,78.395456 L4.61656996,26.2035631 Z M14.6858262,59.0002022 L14.7615349,59.0080558 L60.4933713,63.6369684 L63.3873361,68.3428463 L69.6333033,78.495982 L2.85445011,81.640564 L14.6858262,59.0002022 Z" id="path-1"></path>
        <linearGradient x1="100%" y1="5.52040289%" x2="0%" y2="94.4795971%" id="linearGradient-3">
            <stop stop-color="#32C5FF" offset="0%"></stop>
            <stop stop-color="#B620E0" offset="51.2583893%"></stop>
            <stop stop-color="#F7B500" offset="100%"></stop>
        </linearGradient>
    </defs>
    <g id="Page-1" stroke="none" stroke-width="1" fill="none" fill-rule="evenodd">
        <g id="Desktop-HD" transform="translate(-229.000000, -166.000000)">
            <g id="cristal" transform="translate(275.500000, 223.000000) rotate(114.000000) translate(-275.500000, -223.000000) translate(231.000000, 181.000000)">
                <mask id="mask-2" fill="white">
                    <use xlink:href="#path-1"></use>
                </mask>
                <g id="Clip-2"></g>
                <path d="M87.4532371,0.280395962 C87.3699575,0.283537403 87.2866779,0.294532445 87.2090765,0.313381088 L87.2090765,0.313381088 L10.6183766,20.0903199 C10.5010282,20.1201636 10.3969287,20.1704266 10.3060783,20.2316847 L10.3060783,20.2316847 C10.3022928,20.2348262 10.2966147,20.2348262 10.2928293,20.2363969 L10.2928293,20.2363969 L3.08157619,25.2155801 C2.84120109,25.3805057 2.72574533,25.6208259 2.73899436,25.8595754 L2.73899436,25.8595754 L0.431771918,82.4699043 C0.431771918,82.471475 0.433664635,82.4746165 0.433664635,82.4777579 L0.433664635,82.4777579 C0.429879201,82.5578646 0.454484526,82.6348299 0.480982569,82.7117952 L0.480982569,82.7117952 C0.488553438,82.7337853 0.484768004,82.7589168 0.49423159,82.7777655 L0.49423159,82.7777655 C0.526407785,82.8468772 0.579403871,82.9034231 0.632399956,82.9615397 L0.632399956,82.9615397 C0.653219847,82.9835298 0.662683434,83.0118028 0.687288759,83.0322222 L0.687288759,83.0322222 C0.717572236,83.0604951 0.762997453,83.0762023 0.797066365,83.0997631 L0.797066365,83.0997631 C0.85763332,83.1390311 0.918200274,83.1830113 0.986338099,83.2097136 L0.986338099,83.2097136 C0.992016251,83.2112843 0.993908968,83.2144257 0.997694403,83.2159964 L0.997694403,83.2159964 C1.01662158,83.2207086 1.03744147,83.2175672 1.05447592,83.2222793 L1.05447592,83.2222793 C1.14721907,83.252123 1.24185494,83.2772545 1.34406168,83.280396 L1.34406168,83.280396 C1.36109613,83.280396 1.37245244,83.2709716 1.38948689,83.2709716 L1.38948689,83.2709716 C1.40841407,83.2709716 1.42923396,83.280396 1.44816113,83.2788252 L1.44816113,83.2788252 L71.189117,79.9944492 L71.1910097,79.9928785 C71.3083581,79.9881663 71.4275993,79.9614641 71.5411624,79.9174839 L71.5411624,79.9174839 C71.5449478,79.9159132 71.5487332,79.9159132 71.5544114,79.9127717 L71.5544114,79.9127717 C71.5581968,79.911201 71.563875,79.9127717 71.5676604,79.9096303 L71.5676604,79.9096303 C71.7910011,79.8169578 71.9499893,79.6567443 72.0294835,79.4745408 L72.0294835,79.4745408 L86.9403107,51.140318 C86.9970922,51.0319383 87.0235902,50.9188464 87.0198048,50.8073253 L87.0198048,50.8073253 L88.4317719,1.08460474 C88.4317719,1.07518041 88.4260938,1.06732681 88.4260938,1.05633177 L88.4260938,1.05633177 C88.4260938,0.99350296 88.4052739,0.935386311 88.3882394,0.875698941 L88.3882394,0.875698941 C88.3749904,0.836430934 88.371205,0.795592208 88.3522778,0.757894921 L88.3522778,0.757894921 C88.323887,0.706061153 88.28414,0.662080985 88.2425002,0.616530098 L88.2425002,0.616530098 C88.2122167,0.580403532 88.1876114,0.542706246 88.149757,0.51129184 L88.149757,0.51129184 C88.1043318,0.475165274 88.049443,0.45003375 87.9983396,0.421760786 L87.9983396,0.421760786 C87.9472363,0.393487821 87.8980256,0.363644136 87.8431368,0.344795493 L87.8431368,0.344795493 C87.8279951,0.338512612 87.8204242,0.33065901 87.8052825,0.32594685 L87.8052825,0.32594685 C87.7087539,0.296103165 87.6103326,0.283537403 87.513804,0.281966682 L87.513804,0.281966682 L87.5119113,0.280395962 L87.4532371,0.280395962 Z M38.9864241,59.8766641 L14.988661,57.4483306 L11.901639,21.4584172 L11.8978536,21.4081542 L85.9655612,2.28306429 L69.186622,41.6217532 L60.4706587,62.0521116 L38.9864241,59.8766641 Z M66.5671012,70.0486485 L62.1381426,62.8484668 L86.4046716,5.9585497 L85.1346583,50.651824 L71.0717685,77.3729171 L66.5671012,70.0486485 Z M4.61656996,26.2035631 L10.0846304,22.4275516 L13.1394761,58.0169313 L2.48915567,78.395456 L4.61656996,26.2035631 Z M14.6858262,59.0002022 L14.7615349,59.0080558 L60.4933713,63.6369684 L63.3873361,68.3428463 L69.6333033,78.495982 L2.85445011,81.640564 L14.6858262,59.0002022 Z" id="Fill-1" fill="url(#linearGradient-3)" mask="url(#mask-2)"></path>
            </g>
        </g>
    </g>
</svg>