<?xml version="1.0" encoding="UTF-8"?>
<svg width="1440px" height="165px" viewBox="0 0 1440 165" version="1.1" xmlns="http://www.w3.org/2000/svg" xmlns:xlink="http://www.w3.org/1999/xlink">
    <!-- Generator: Sketch 56 (81588) - https://sketch.com -->
    <title>pattern</title>
    <desc>Created with Sketch.</desc>
    <defs>
        <path d="M1122.3181,1.11076927 L1110.1911,6.32111184 L1115.39216,1.11076927 L1110.74791,1.11076927 L1102.20752,9.65984029 L1090.45535,14.658302 L1095.67197,1.11076927 L1093.08388,1.11076927 L1087.36178,15.9745315 L973.862208,64.2319988 L949.183588,1.11076927 L946.578389,1.11076927 L971.627181,65.179042 L903.724034,94.0494121 L903.622937,94.1071978 L903.619826,94.1071978 L903.61516,94.1104081 L793.890407,139.542798 L884.153159,1.11076927 L880.765622,1.11076927 L789.68165,140.794821 L701.647704,1.11076927 L698.341046,1.11076927 L784.530355,137.847751 L589.552608,10.6389866 L603.995519,1.11076927 L597.277995,1.11076927 L586.093526,8.48807501 L574.947941,1.11076927 L568.228861,1.11076927 L582.93307,10.57157 L389.911944,137.847751 L476.21946,1.11076927 L472.909691,1.11076927 L384.759094,140.794821 L293.793328,1.11076927 L290.405791,1.11076927 L380.551893,139.542798 L202.59737,65.3267165 L227.515514,1.11076927 L224.90876,1.11076927 L200.357677,64.3925146 L88.3107968,17.6631576 L81.9401136,1.11076927 L79.3535789,1.11076927 L85.1861136,16.3597694 L72.2565506,10.9664388 L62.2961367,1.11076927 L57.6503284,1.11076927 L64.2232062,7.61807943 L48.62312,1.11076927 L38.2956452,1.11076927 L71.8194994,15.1366391 L92.5755462,35.67945 L165.63932,226.68682 L3.62550357,1.11076927 L0,1.11076927 L60.6645823,85.570968 L14.1505069,216.709159 L14.1505069,224.356131 L96.3690268,135.282708 L170.306903,238.035287 L266.409966,206.737918 L271.42128,98.6112709 L384.951957,145.475461 L456.483718,132.287484 L578.355697,240 L717.958582,132.287484 L789.583663,145.497933 L903.02102,98.6112709 L908.082104,206.853489 L1004.21316,237.996763 L1078.07327,135.282708 L1190.15437,232.060889 L1242.50876,135.282708 L1316.39686,238.012815 L1412.53414,206.782862 L1417.56257,98.6112709 L1530.86616,145.513985 L1602.62345,132.287484 L1745.08661,232.776789 L1654.59055,122.717532 L1769,101.4524 L1769,97.2629382 L1540.0318,139.639107 L1750.83826,1.11076927 L1744.11918,1.11076927 L1536.05323,137.847751 L1592.7128,47.592932 L1717.88678,1.11076927 L1706.09106,1.11076927 L1596.25121,41.9524071 L1621.89414,1.11076927 L1618.58593,1.11076927 L1591.93824,43.557565 L1491.80684,80.7940181 L1444.83394,1.11076927 L1441.44641,1.11076927 L1526.69318,139.542798 L1368.10889,73.8693669 L1357.77831,73.8693669 L1414.09104,97.17947 L1368.93789,160.329592 L1327.81619,119.247181 L1373.18864,1.11076927 L1370.58344,1.11076927 L1325.942,117.375567 L1239.29853,30.9602857 L1227.84965,1.11076927 L1225.26156,1.11076927 L1235.10844,26.7836648 L1209.37063,1.11076927 L1204.72326,1.11076927 L1237.98738,34.2893832 L1311.78216,226.68682 L1161.80514,18.1864391 L1173.97414,1.11076927 L1170.34864,1.11076927 L1159.96206,15.6213968 L1149.53349,1.11076927 L1145.90643,1.11076927 L1158.15942,18.1029709 L1008.80298,226.68682 L1083.28989,33.2588718 L1102.48126,13.9295603 L1135.27722,0 L1122.3181,1.11076927 Z M586.213288,12.8444736 L778.985559,138.611806 L780.551789,139.639107 L666.570063,118.6308 L604.9505,66.9254538 L508.159975,118.579435 L393.890511,139.639107 L586.213288,12.8444736 Z M1094.61279,17.2682888 L1086.20771,25.6857368 L1088.43963,19.8911168 L1094.61279,17.2682888 Z M79.8746186,18.5042604 L87.1738414,21.5572707 L89.7432674,28.2668307 L79.8746186,18.5042604 Z M1113.77772,85.570968 L1160.02116,20.6904854 L1206.80587,85.570968 L1190.15437,224.413917 L1113.77772,85.570968 Z M1085.34761,21.204136 L1081.99896,29.9008815 L994.641585,117.375567 L975.313343,67.9463342 L1085.34761,21.204136 Z M93.8415951,32.3246699 L90.1974274,22.8092939 L198.848995,68.2834174 L179.800714,117.375567 L93.8415951,32.3246699 Z M1079.07958,37.4772268 L1004.55067,231.020747 L995.486136,121.17337 L1079.07958,37.4772268 Z M1242.17747,38.4660041 L1325.09589,121.17337 L1316.03291,231.020747 L1242.17747,38.4660041 Z M96.6816507,39.7404995 L178.956163,121.17016 L169.922733,230.995064 L96.6816507,39.7404995 Z M1588.4014,49.1948795 L1530.90194,140.794821 L1494.04809,84.229056 L1588.4014,49.1948795 Z M906.492544,97.17947 L973.079871,68.8933774 L992.765842,119.247181 L951.64414,160.329592 L906.492544,97.17947 Z M181.674902,119.247181 L201.087133,69.2208296 L269.416443,97.8183229 L222.79816,160.329592 L181.674902,119.247181 Z M508.447714,122.717532 L604.9505,71.1149159 L665.994586,122.717532 L578.355697,234.821761 L508.447714,122.717532 Z M1208.48564,87.908078 L1240.60502,132.630988 L1192.54182,224.760631 L1208.48564,87.908078 Z M1079.97701,132.630988 L1112.09795,87.908078 L1187.76692,224.760631 L1079.97701,132.630988 Z M62.342797,87.908078 L94.4652875,132.630988 L16.5379577,217.055873 L62.342797,87.908078 Z M1415.45663,100.309528 L1410.88859,202.240265 L1371.04071,162.432349 L1415.45663,100.309528 Z M905.126953,100.309528 L949.541316,162.432349 L909.693439,202.240265 L905.126953,100.309528 Z M269.316901,100.312738 L264.74886,202.240265 L224.900983,162.432349 L269.316901,100.312738 Z M1326.99497,123.064246 L1408.40315,204.397598 L1317.8791,233.479849 L1326.99497,123.064246 Z M912.178877,204.397598 L993.588618,123.064246 L1002.70293,233.479849 L912.178877,204.397598 Z M180.853681,123.064246 L262.261867,204.397598 L171.737818,233.479849 L180.853681,123.064246 Z M1607.59899,131.378964 L1651.14392,123.353175 L1725.48618,214.612823 L1607.59899,131.378964 Z M669.43967,123.353175 L712.984596,131.378964 L586.231952,230.019128 L669.43967,123.353175 Z M461.457703,131.378964 L505.00263,123.353175 L570.479442,230.019128 L461.457703,131.378964 Z" id="path-1"></path>
        <linearGradient x1="100%" y1="49.0796843%" x2="0%" y2="50.9203157%" id="linearGradient-3">
            <stop stop-color="#32C5FF" offset="0%"></stop>
            <stop stop-color="#B620E0" offset="51.2583893%"></stop>
            <stop stop-color="#F7B500" offset="100%"></stop>
        </linearGradient>
    </defs>
    <g id="Page-1" stroke="none" stroke-width="1" fill="none" fill-rule="evenodd" opacity="0.501232329">
        <g id="Desktop-HD">
            <g id="pattern" transform="translate(-69.000000, -75.000000)">
                <mask id="mask-2" fill="white">
                    <use xlink:href="#path-1"></use>
                </mask>
                <g id="Clip-2"></g>
                <path d="M1122.3181,1.11076927 L1110.1911,6.32111184 L1115.39216,1.11076927 L1110.74791,1.11076927 L1102.20752,9.65984029 L1090.45535,14.658302 L1095.67197,1.11076927 L1093.08388,1.11076927 L1087.36178,15.9745315 L973.862208,64.2319988 L949.183588,1.11076927 L946.578389,1.11076927 L971.627181,65.179042 L903.724034,94.0494121 L903.622937,94.1071978 L903.619826,94.1071978 L903.61516,94.1104081 L793.890407,139.542798 L884.153159,1.11076927 L880.765622,1.11076927 L789.68165,140.794821 L701.647704,1.11076927 L698.341046,1.11076927 L784.530355,137.847751 L589.552608,10.6389866 L603.995519,1.11076927 L597.277995,1.11076927 L586.093526,8.48807501 L574.947941,1.11076927 L568.228861,1.11076927 L582.93307,10.57157 L389.911944,137.847751 L476.21946,1.11076927 L472.909691,1.11076927 L384.759094,140.794821 L293.793328,1.11076927 L290.405791,1.11076927 L380.551893,139.542798 L202.59737,65.3267165 L227.515514,1.11076927 L224.90876,1.11076927 L200.357677,64.3925146 L88.3107968,17.6631576 L81.9401136,1.11076927 L79.3535789,1.11076927 L85.1861136,16.3597694 L72.2565506,10.9664388 L62.2961367,1.11076927 L57.6503284,1.11076927 L64.2232062,7.61807943 L48.62312,1.11076927 L38.2956452,1.11076927 L71.8194994,15.1366391 L92.5755462,35.67945 L165.63932,226.68682 L3.62550357,1.11076927 L0,1.11076927 L60.6645823,85.570968 L14.1505069,216.709159 L14.1505069,224.356131 L96.3690268,135.282708 L170.306903,238.035287 L266.409966,206.737918 L271.42128,98.6112709 L384.951957,145.475461 L456.483718,132.287484 L578.355697,240 L717.958582,132.287484 L789.583663,145.497933 L903.02102,98.6112709 L908.082104,206.853489 L1004.21316,237.996763 L1078.07327,135.282708 L1190.15437,232.060889 L1242.50876,135.282708 L1316.39686,238.012815 L1412.53414,206.782862 L1417.56257,98.6112709 L1530.86616,145.513985 L1602.62345,132.287484 L1745.08661,232.776789 L1654.59055,122.717532 L1769,101.4524 L1769,97.2629382 L1540.0318,139.639107 L1750.83826,1.11076927 L1744.11918,1.11076927 L1536.05323,137.847751 L1592.7128,47.592932 L1717.88678,1.11076927 L1706.09106,1.11076927 L1596.25121,41.9524071 L1621.89414,1.11076927 L1618.58593,1.11076927 L1591.93824,43.557565 L1491.80684,80.7940181 L1444.83394,1.11076927 L1441.44641,1.11076927 L1526.69318,139.542798 L1368.10889,73.8693669 L1357.77831,73.8693669 L1414.09104,97.17947 L1368.93789,160.329592 L1327.81619,119.247181 L1373.18864,1.11076927 L1370.58344,1.11076927 L1325.942,117.375567 L1239.29853,30.9602857 L1227.84965,1.11076927 L1225.26156,1.11076927 L1235.10844,26.7836648 L1209.37063,1.11076927 L1204.72326,1.11076927 L1237.98738,34.2893832 L1311.78216,226.68682 L1161.80514,18.1864391 L1173.97414,1.11076927 L1170.34864,1.11076927 L1159.96206,15.6213968 L1149.53349,1.11076927 L1145.90643,1.11076927 L1158.15942,18.1029709 L1008.80298,226.68682 L1083.28989,33.2588718 L1102.48126,13.9295603 L1135.27722,0 L1122.3181,1.11076927 Z M586.213288,12.8444736 L778.985559,138.611806 L780.551789,139.639107 L666.570063,118.6308 L604.9505,66.9254538 L508.159975,118.579435 L393.890511,139.639107 L586.213288,12.8444736 Z M1094.61279,17.2682888 L1086.20771,25.6857368 L1088.43963,19.8911168 L1094.61279,17.2682888 Z M79.8746186,18.5042604 L87.1738414,21.5572707 L89.7432674,28.2668307 L79.8746186,18.5042604 Z M1113.77772,85.570968 L1160.02116,20.6904854 L1206.80587,85.570968 L1190.15437,224.413917 L1113.77772,85.570968 Z M1085.34761,21.204136 L1081.99896,29.9008815 L994.641585,117.375567 L975.313343,67.9463342 L1085.34761,21.204136 Z M93.8415951,32.3246699 L90.1974274,22.8092939 L198.848995,68.2834174 L179.800714,117.375567 L93.8415951,32.3246699 Z M1079.07958,37.4772268 L1004.55067,231.020747 L995.486136,121.17337 L1079.07958,37.4772268 Z M1242.17747,38.4660041 L1325.09589,121.17337 L1316.03291,231.020747 L1242.17747,38.4660041 Z M96.6816507,39.7404995 L178.956163,121.17016 L169.922733,230.995064 L96.6816507,39.7404995 Z M1588.4014,49.1948795 L1530.90194,140.794821 L1494.04809,84.229056 L1588.4014,49.1948795 Z M906.492544,97.17947 L973.079871,68.8933774 L992.765842,119.247181 L951.64414,160.329592 L906.492544,97.17947 Z M181.674902,119.247181 L201.087133,69.2208296 L269.416443,97.8183229 L222.79816,160.329592 L181.674902,119.247181 Z M508.447714,122.717532 L604.9505,71.1149159 L665.994586,122.717532 L578.355697,234.821761 L508.447714,122.717532 Z M1208.48564,87.908078 L1240.60502,132.630988 L1192.54182,224.760631 L1208.48564,87.908078 Z M1079.97701,132.630988 L1112.09795,87.908078 L1187.76692,224.760631 L1079.97701,132.630988 Z M62.342797,87.908078 L94.4652875,132.630988 L16.5379577,217.055873 L62.342797,87.908078 Z M1415.45663,100.309528 L1410.88859,202.240265 L1371.04071,162.432349 L1415.45663,100.309528 Z M905.126953,100.309528 L949.541316,162.432349 L909.693439,202.240265 L905.126953,100.309528 Z M269.316901,100.312738 L264.74886,202.240265 L224.900983,162.432349 L269.316901,100.312738 Z M1326.99497,123.064246 L1408.40315,204.397598 L1317.8791,233.479849 L1326.99497,123.064246 Z M912.178877,204.397598 L993.588618,123.064246 L1002.70293,233.479849 L912.178877,204.397598 Z M180.853681,123.064246 L262.261867,204.397598 L171.737818,233.479849 L180.853681,123.064246 Z M1607.59899,131.378964 L1651.14392,123.353175 L1725.48618,214.612823 L1607.59899,131.378964 Z M669.43967,123.353175 L712.984596,131.378964 L586.231952,230.019128 L669.43967,123.353175 Z M461.457703,131.378964 L505.00263,123.353175 L570.479442,230.019128 L461.457703,131.378964 Z" id="Fill-1" fill="url(#linearGradient-3)" mask="url(#mask-2)"></path>
            </g>
        </g>
    </g>
</svg>